<svg width="3" height="5" viewBox="0 0 3 5" fill="none" xmlns="http://www.w3.org/2000/svg">
<path d="M1.99189 2.49894L0.0815389 4.36951C0.0289371 4.42089 1.93797e-07 4.48959 2.00201e-07 4.56285C2.06609e-07 4.63614 0.0289371 4.7048 0.0815389 4.75626L0.248934 4.92008C0.301453 4.97163 0.371658 5 0.446471 5C0.521284 5 0.591406 4.97163 0.643966 4.92008L2.91854 2.69301C2.97131 2.64138 3.00021 2.5724 3 2.49907C3.00021 2.42541 2.97135 2.3565 2.91854 2.30484L0.646083 0.0799191C0.593523 0.0283744 0.523401 2.16511e-07 0.448546 2.23055e-07C0.373733 2.29595e-07 0.303612 0.0283744 0.25101 0.0799191L0.0836559 0.24374C-0.0252425 0.350366 -0.0252425 0.523944 0.0836559 0.630529L1.99189 2.49894Z" fill="white"/>
</svg>
