<svg width="40" height="48" viewBox="0 0 40 48" fill="none" xmlns="http://www.w3.org/2000/svg">
<path d="M19 37H7C3.7 37 1 34.3 1 31V9C1 7.9 1.9 7 3 7H23C24.1 7 25 7.9 25 9V31C25 34.3 22.3 37 19 37Z" stroke="#4A63FE" stroke-width="2" stroke-miterlimit="10"/>
<path d="M13 7C14.6569 7 16 5.65685 16 4C16 2.34315 14.6569 1 13 1C11.3431 1 10 2.34315 10 4C10 5.65685 11.3431 7 13 7Z" stroke="#4A63FE" stroke-width="2" stroke-miterlimit="10"/>
<path d="M13 34V43C13 45.2 14.8 47 17 47H27C29.2 47 31 45.2 31 43V28C31 25.8 32.8 24 35 24C37.2 24 39 25.8 39 28V47" stroke="#4A63FE" stroke-width="2" stroke-miterlimit="10" stroke-linecap="round"/>
<path d="M11 41H15" stroke="#4A63FE" stroke-width="2" stroke-miterlimit="10" stroke-linecap="round"/>
<path d="M25 21H11V12H25" stroke="#4A63FE" stroke-width="2" stroke-miterlimit="10"/>
<path d="M1 27C3 27 5 25 7 25C9 25 11 27 13 27C15 27 17 25 19 25C21 25 23 27 25 27" stroke="#4A63FE" stroke-width="2" stroke-miterlimit="10"/>
<path d="M4 12H6" stroke="#4A63FE" stroke-width="2" stroke-miterlimit="10" stroke-linecap="round" stroke-linejoin="round"/>
<path d="M4 16H6" stroke="#4A63FE" stroke-width="2" stroke-miterlimit="10" stroke-linecap="round" stroke-linejoin="round"/>
<path d="M4 20H6" stroke="#4A63FE" stroke-width="2" stroke-miterlimit="10" stroke-linecap="round" stroke-linejoin="round"/>
</svg>
