<svg width="43" height="45" viewBox="0 0 43 45" fill="none" xmlns="http://www.w3.org/2000/svg">
<path d="M18.1494 39.8337L17.7129 40.7578L24.196 43.7402L24.6326 42.8161L18.1494 39.8337Z" fill="white" stroke="white" stroke-width="0.5" stroke-miterlimit="10"/>
<path d="M29.3296 32.941C27.8592 32.941 26.4683 32.5488 25.7132 32.1959C24.6799 31.7253 23.2492 30.7057 22.2955 29.2939C21.0635 27.4508 20.9442 25.4116 21.898 23.3331C24.0043 18.8233 27.1836 15.8822 27.3028 15.7645C27.4618 15.6076 27.7003 15.5684 27.8592 15.6861L37.1189 19.9606C37.3176 20.039 37.4369 20.2351 37.3971 20.4312C37.3971 20.6273 37.1189 24.9018 35.0126 29.4116C33.7409 32.1567 31.3962 32.941 29.3296 32.941ZM27.7797 16.7449C26.9849 17.5292 24.521 20.1567 22.8518 23.7645C22.0173 25.5292 22.1365 27.2155 23.1698 28.7449C24.0043 29.9998 25.3158 30.9018 26.1901 31.2939C26.2298 31.3331 31.8731 33.8429 34.1383 28.9802C35.8472 25.3724 36.2844 21.8037 36.4036 20.7449L27.7797 16.7449Z" fill="white" stroke="white" stroke-width="0.5" stroke-miterlimit="10"/>
<path d="M25.4643 31.5278L20.7114 41.5859L21.6479 42.0168L26.4008 31.9587L25.4643 31.5278Z" fill="white" stroke="white" stroke-width="0.5" stroke-miterlimit="10"/>
<path d="M35.9705 24.6069L21.874 27.021L22.0507 28.0256L36.1472 25.6115L35.9705 24.6069Z" fill="white" stroke="white" stroke-width="0.5" stroke-miterlimit="10"/>
<path d="M14.9822 32.4311C12.9157 32.4311 10.5709 31.6468 9.25947 28.8625C7.15319 24.3527 6.875 20.0782 6.875 19.8821C6.875 19.686 6.99422 19.4899 7.15319 19.4115L16.4129 15.137C16.6116 15.0586 16.85 15.0978 16.9693 15.2154C17.0885 15.2939 19.5524 17.6076 21.5793 21.2154L20.6652 21.7252C19.0756 18.9017 17.168 16.8625 16.4924 16.1958L7.94801 20.1566C8.06724 21.2546 8.50439 24.7841 10.2133 28.3919C12.5183 33.2546 18.1218 30.7448 18.1615 30.7056L18.5987 31.6468C17.8436 32.039 16.4924 32.4311 14.9822 32.4311Z" fill="white" stroke="white" stroke-width="0.5" stroke-miterlimit="10"/>
<path d="M18.5983 31.6859L18.1611 30.7448C18.8367 30.431 19.5918 29.9212 20.1879 29.333L20.9033 30.0781C19.9495 31.0193 18.9957 31.4899 18.5983 31.6859Z" fill="white" stroke="white" stroke-width="0.5" stroke-miterlimit="10"/>
<path d="M18.8735 31.0066L17.937 31.4375L20.557 36.9819L21.4934 36.551L18.8735 31.0066Z" fill="white" stroke="white" stroke-width="0.5" stroke-miterlimit="10"/>
<path d="M8.30485 24.0697L8.16309 25.0796L19.6179 26.6453L19.7597 25.6354L8.30485 24.0697Z" fill="white" stroke="white" stroke-width="0.5" stroke-miterlimit="10"/>
<path d="M18.5197 38.7841C15.698 38.2351 14.1084 37.2155 14.1084 35.9214C14.1084 35.3724 14.4263 34.5881 15.857 33.9214L16.2942 34.8233C15.5391 35.1763 15.1417 35.5684 15.1417 35.9214C15.1417 36.4704 16.2544 37.2939 18.7184 37.7645L18.5197 38.7841Z" fill="white" stroke="white" stroke-width="0.5" stroke-miterlimit="10"/>
<path d="M25.6336 38.9018L25.4746 37.8822C26.4284 37.7253 27.263 37.5292 27.9783 37.294C28.4949 37.0979 28.9321 36.9018 29.25 36.6665L29.8461 37.49C29.4487 37.7645 28.9321 38.0391 28.2962 38.2351C27.5809 38.5489 26.6668 38.7841 25.6336 38.9018Z" fill="white" stroke="white" stroke-width="0.5" stroke-miterlimit="10"/>
<path d="M30.9192 35.9212H29.8859C29.8859 35.4114 28.9322 34.6663 26.7861 34.1957L27.0246 33.2153C29.5283 33.7644 30.9192 34.7447 30.9192 35.9212Z" fill="white" stroke="white" stroke-width="0.5" stroke-miterlimit="10"/>
<path d="M30.9191 39.0586L30.6807 38.039C32.4293 37.6468 33.7805 37.137 34.4958 36.5488C34.7343 36.3527 34.9727 36.1174 34.9727 35.8037C34.9727 35.5292 34.6945 35.1762 34.1779 34.8625C33.7407 34.588 33.1049 34.3135 32.3498 34.039L32.6677 33.0586C33.5023 33.3331 34.2176 33.6468 34.7343 33.9606C35.5688 34.5096 36.006 35.0978 36.006 35.7645C36.006 36.3135 35.7278 36.8233 35.1317 37.2939C34.2971 38.039 32.8664 38.6272 30.9191 39.0586Z" fill="white" stroke="white" stroke-width="0.5" stroke-miterlimit="10"/>
<path d="M13.8696 39.0194C11.6441 38.5096 8.98145 37.5292 8.98145 35.8821C8.98145 34.7449 10.2134 33.8037 12.6774 33.0586L12.9953 34.039C10.8095 34.7057 10.0147 35.4115 10.0147 35.8821C10.0147 36.4704 11.2864 37.3723 14.1081 38.039L13.8696 39.0194Z" fill="white" stroke="white" stroke-width="0.5" stroke-miterlimit="10"/>
<path d="M11.1275 41.647H3.1793C1.43068 41.647 0 40.2352 0 38.5098V6.27446C0 4.54897 1.43068 3.13721 3.1793 3.13721H4.76895V4.70583H3.1793C2.30499 4.70583 1.58965 5.41172 1.58965 6.27446V38.4705C1.58965 39.3333 2.30499 40.0392 3.1793 40.0392H11.1275V41.647Z" fill="white"/>
<path d="M39.8203 41.647H31.8721V40.0784H39.8203C40.6946 40.0784 41.41 39.3725 41.41 38.5098V6.27446C41.41 5.41172 40.6946 4.70583 39.8203 4.70583H35.0514V3.13721H39.8203C41.5689 3.13721 42.9996 4.54897 42.9996 6.27446V38.4705C42.9996 40.2352 41.5689 41.647 39.8203 41.647Z" fill="white"/>
<path d="M31.8327 3.13721H21.5V4.70583H31.8327V3.13721Z" fill="white"/>
<path d="M18.281 3.13721H7.94824V4.70583H18.281V3.13721Z" fill="white"/>
<path d="M7.94824 7.84314C5.76248 7.84314 3.97412 6.07843 3.97412 3.92157C3.97412 1.76471 5.76248 0 7.94824 0C10.134 0 11.9224 1.76471 11.9224 3.92157H10.3327C10.3327 2.62745 9.2597 1.56863 7.94824 1.56863C6.63678 1.56863 5.56377 2.62745 5.56377 3.92157C5.56377 5.21569 6.63678 6.27451 7.94824 6.27451V7.84314Z" fill="white"/>
<path d="M21.5 7.84314C19.3142 7.84314 17.5259 6.07843 17.5259 3.92157C17.5259 1.76471 19.3142 0 21.5 0C23.6858 0 25.4741 1.76471 25.4741 3.92157H23.8845C23.8845 2.62745 22.8115 1.56863 21.5 1.56863C20.1885 1.56863 19.1155 2.62745 19.1155 3.92157C19.1155 5.21569 20.1885 6.27451 21.5 6.27451V7.84314Z" fill="white"/>
<path d="M35.0518 7.84314C32.866 7.84314 31.0776 6.07843 31.0776 3.92157C31.0776 1.76471 32.866 0 35.0518 0C37.2375 0 39.0259 1.76471 39.0259 3.92157H37.4362C37.4362 2.62745 36.3632 1.56863 35.0518 1.56863C33.7403 1.56863 32.6673 2.62745 32.6673 3.92157C32.6673 5.21569 33.7403 6.27451 35.0518 6.27451V7.84314Z" fill="white"/>
<path d="M22.2949 9.41162H0.794922V10.9802H22.2949V9.41162Z" fill="white"/>
<path d="M25.4744 9.41162H23.8848V10.9802H25.4744V9.41162Z" fill="white"/>
<path d="M28.6536 9.41162H27.064V10.9802H28.6536V9.41162Z" fill="white"/>
<path d="M42.2053 9.41162H30.2432V10.9802H42.2053V9.41162Z" fill="white"/>
<path d="M39.0257 14.1567H37.436V18.8626H39.0257V14.1567Z" fill="white"/>
<path d="M4.76885 14.1567H3.1792V18.8626H4.76885V14.1567Z" fill="white"/>
<path d="M4.76885 20.4312H3.1792V21.9998H4.76885V20.4312Z" fill="white"/>
</svg>
