<svg width="46" height="42" viewBox="0 0 46 42" fill="none" xmlns="http://www.w3.org/2000/svg">
<path d="M5.58366 1.91943H27.5837C29.6003 1.91943 31.2503 3.57461 31.2503 5.59759V22.1493C31.2503 24.1723 29.6003 25.8275 27.5837 25.8275H15.392L8.97533 32.4482C8.42533 33.0918 7.41699 32.6321 7.41699 31.8045V25.8275H5.58366C3.56699 25.8275 1.91699 24.1723 1.91699 22.1493V5.59759C1.91699 3.57461 3.56699 1.91943 5.58366 1.91943Z" stroke="white" stroke-width="2" stroke-miterlimit="10" stroke-linejoin="round"/>
<path d="M19.334 27.6665V29.5056C19.334 31.5285 20.984 33.1837 23.0007 33.1837H31.5257L37.9423 39.8044C38.4923 40.3561 39.5007 39.9883 39.5007 39.1607V33.1837H40.4173C42.434 33.1837 44.084 31.5285 44.084 29.5056V14.7929C44.084 12.7699 42.434 11.1147 40.4173 11.1147H33.084" stroke="white" stroke-width="2" stroke-miterlimit="10" stroke-linejoin="round"/>
<path d="M19.3333 11.1148V6.51709H13.8333V11.1148H9.25V16.632H13.8333V21.2297H19.3333V16.632H23.9167V11.1148H19.3333Z" stroke="white" stroke-width="2" stroke-miterlimit="10"/>
</svg>
