<svg width="38" height="49" viewBox="0 0 38 49" fill="none" xmlns="http://www.w3.org/2000/svg">
<path d="M15.7036 13.876C13.2593 13.876 11.2837 11.8549 11.2837 9.39211C11.2837 8.69575 11.4511 8.03336 11.7692 7.38795L12.5728 5.75745C13.3262 4.22885 14.8498 3.26074 16.524 3.26074C18.9683 3.26074 20.9439 5.28189 20.9439 7.74463C20.9439 8.44099 20.7765 9.10338 20.4584 9.74879L19.6547 11.3793C18.8846 12.9249 17.3778 13.876 15.7036 13.876ZM16.5072 4.89124C15.4357 4.89124 14.4814 5.50268 13.9959 6.47079L13.1923 8.1013C12.9914 8.50892 12.8909 8.93353 12.8909 9.37513C12.8909 10.9547 14.1466 12.2285 15.7036 12.2285C16.7751 12.2285 17.7294 11.6171 18.2149 10.649L19.0185 9.01846C19.2194 8.61083 19.3199 8.18622 19.3199 7.74463C19.3199 6.18206 18.0475 4.89124 16.5072 4.89124Z" fill="white"/>
<path d="M2.41086 21.2307C1.07149 21.2307 0 20.1267 0 18.7849C0 17.9187 0.468778 17.1204 1.20543 16.6788L6.91448 13.2989C8.8733 12.127 11.1167 11.4816 13.4104 11.4307L13.4439 13.0612C11.4348 13.0951 9.45928 13.6726 7.7181 14.6917L2.00905 18.0716C1.75792 18.2244 1.60724 18.4792 1.60724 18.7679C1.60724 19.3624 2.26018 19.787 2.81267 19.4643L9.96154 15.405L10.7484 16.8317L3.59955 20.874C3.24796 21.1118 2.82941 21.2307 2.41086 21.2307Z" fill="white"/>
<path d="M18.5167 49V47.3695C18.5167 46.758 18.1316 46.1976 17.5289 45.9937L16.1561 45.5352L13.7284 27.0392C13.695 26.8014 13.6782 26.5466 13.6782 26.3088C13.6782 25.7144 13.7787 25.1199 13.9628 24.5594L16.6918 16.305L21.2122 18.5979C21.48 18.7338 21.614 18.7847 21.7479 18.7847C22.0493 18.7847 22.3171 18.6149 22.4678 18.3262L24.8619 13.4177C24.9289 13.2988 24.9456 13.1799 24.9456 13.061C24.9456 12.6703 24.6275 12.2457 24.142 12.2457C23.8407 12.2457 23.5728 12.4156 23.4221 12.7043L21.4131 16.7636L17.8135 14.3348C17.395 14.0461 16.9597 13.8083 16.5076 13.6215L17.1271 12.1099C17.6796 12.3476 18.2153 12.6364 18.7176 12.9761L20.7936 14.3858L21.9823 11.974C22.4008 11.1418 23.2212 10.6152 24.142 10.6152C25.4814 10.6152 26.5529 11.7192 26.5529 13.061C26.5529 13.4346 26.4692 13.8083 26.3018 14.148L23.8909 19.0565C23.4723 19.8887 22.652 20.4152 21.7312 20.4152C21.1954 20.4152 20.8103 20.2284 20.4755 20.0416L17.6294 18.5979L15.4864 25.069C15.3524 25.4766 15.2855 25.8842 15.2855 26.3088C15.2855 26.4787 15.3022 26.6485 15.3189 26.8184L17.6294 44.2953L18.0479 44.4312C19.3036 44.8558 20.1407 46.0277 20.1239 47.3695C20.1239 48.2697 19.3873 49 18.5167 49Z" fill="white"/>
<path d="M28.9638 47.3525H4.01807V48.983H28.9638V47.3525Z" fill="white"/>
<path d="M32.1946 47.3525H30.5874V48.983H32.1946V47.3525Z" fill="white"/>
<path d="M12.8748 49.0001H8.85666C7.51729 49.0001 6.4458 47.8961 6.4458 46.5544V25.5617C6.4458 24.1859 6.73042 22.8611 7.26616 21.6213L8.22046 19.4473L9.69376 20.1097L8.73947 22.2837C8.28743 23.3197 8.05304 24.4237 8.05304 25.5617V46.5374C8.05304 46.996 8.42137 47.3526 8.85666 47.3526H12.8748C12.8748 46.7242 12.4897 46.1807 11.9037 45.9769L10.4639 45.4844V31.8289H12.0711V44.3294L12.406 44.4483C13.6616 44.8729 14.4987 46.0448 14.482 47.3866C14.482 48.2698 13.7621 49.0001 12.8748 49.0001Z" fill="white"/>
<path d="M36.7912 12.7891L32.9922 13.313L33.2087 14.9287L37.0077 14.4047L36.7912 12.7891Z" fill="white"/>
<path d="M32.5752 24.195L32.0264 25.7275L35.803 27.1196L36.3519 25.5871L32.5752 24.195Z" fill="white"/>
<path d="M27.4631 31.6044L26.3267 32.7573L29.6295 36.108L30.766 34.9551L27.4631 31.6044Z" fill="white"/>
<path d="M14.7498 8.33934C12.1548 6.89567 10.4639 4.77262 10.4639 2.9383C10.4639 1.15494 12.0376 0 14.482 0C14.4987 0 14.4987 0 14.5155 0C15.52 0 16.5915 0.186828 17.7299 0.543501L17.2444 2.10607C16.2734 1.80035 15.3526 1.6305 14.5155 1.6305H14.4987C14.0969 1.6305 12.0878 1.69844 12.0878 2.9383C12.0878 4.12721 13.5444 5.79168 15.5367 6.91265L14.7498 8.33934Z" fill="white"/>
<path d="M19.9058 9.79997V8.16947C20.5252 8.16947 22.5343 8.08455 22.5343 6.91262C22.5343 6.30118 22.1994 5.57085 21.58 4.84053L22.8021 3.77051C23.6727 4.80656 24.1415 5.89356 24.1415 6.91262C24.1415 8.71297 22.5678 9.79997 19.9058 9.79997Z" fill="white"/>
<path d="M20.2244 3.58388C19.8728 3.32912 19.4877 3.09133 19.0859 2.88752L19.8393 1.44385C20.3081 1.68163 20.7434 1.97036 21.162 2.2591L20.2244 3.58388Z" fill="white"/>
</svg>
