<svg width="43" height="45" viewBox="0 0 43 45" fill="none" xmlns="http://www.w3.org/2000/svg">
<path d="M8.24401 35.9777V43.9777C8.24401 44.5358 8.61874 44.9079 9.18083 44.9079C9.74292 44.9079 10.1176 44.5358 10.1176 43.9777V35.5126C10.1176 35.3265 10.024 35.0474 9.93028 34.8614C9.8366 34.7684 9.8366 34.7684 9.64924 34.6753C7.7756 33.466 1.87364 28.6288 1.87364 20.3498C1.87364 12.6288 7.11983 5.74511 14.6144 3.60558C15.0828 3.41953 15.3638 2.95442 15.2702 2.4893C15.0828 2.02418 14.6144 1.74511 14.146 1.83814C5.80828 4.16372 0 11.7916 0 20.3498C0 29.0009 5.90196 34.2102 8.24401 35.9777Z" fill="white"/>
<path d="M14.2395 7.9772C14.4269 7.51208 14.1458 6.95394 13.6774 6.76789C13.209 6.58185 12.6469 6.86092 12.4595 7.32603L9.18068 16.7214C9.08699 17.0005 9.08699 17.2795 9.27436 17.5586C9.46172 17.8377 9.74277 17.9307 10.0238 17.9307H14.6142L11.0543 27.9772C10.867 28.4423 11.0543 28.9074 11.5227 29.0935C11.8975 29.2795 12.4595 29.1865 12.7406 28.8144L26.0434 11.047C26.2308 10.7679 26.3245 10.3958 26.1371 10.1167C25.9497 9.83766 25.6687 9.55859 25.294 9.55859H20.2351L23.0456 2.95394C31.2896 4.72138 36.2548 11.9772 36.7232 18.0237C36.7232 18.1167 36.7232 18.2098 36.8168 18.3028L37.0042 18.6749C40.2831 26.5818 40.9388 28.8144 41.0325 29.4656C41.1262 29.7446 41.1262 29.9307 41.1262 30.1167H37.7537C37.2852 30.1167 36.8168 30.4888 36.8168 30.9539V31.6981C36.6295 35.5121 35.9737 38.3028 35.599 38.9539C34.9432 39.14 32.1327 39.326 28.8539 39.14H27.9171C27.636 39.14 27.4487 39.233 27.2613 39.4191C27.0739 39.6051 26.9802 39.8842 26.9802 40.0702V43.9772C26.9802 44.5353 27.355 44.9074 27.9171 44.9074C28.4792 44.9074 28.8539 44.5353 28.8539 43.9772V41.0005C29.8844 41.0935 35.5053 41.2795 36.7232 40.4423C38.0347 39.4191 38.5031 32.9074 38.5968 31.8842H41.1262C41.8757 31.8842 42.3441 31.6981 42.6251 31.326C42.9998 30.8609 42.9998 30.1167 42.8125 29.0005C42.6251 27.9772 41.2199 24.2563 38.6905 18.0237L38.5968 17.7446C37.941 9.65161 31.1022 2.3958 22.6709 1.00045C22.2025 0.907428 21.8277 1.1865 21.6404 1.55859L17.9868 10.2098C17.8931 10.4888 17.8931 10.8609 18.0805 11.047C18.2678 11.326 18.5489 11.4191 18.8299 11.4191H23.4203L14.8016 22.8609L16.7689 17.2795C16.8626 17.0005 16.8626 16.7214 16.6752 16.4423C16.4879 16.1632 16.2068 16.0702 15.9258 16.0702H11.3354L14.2395 7.9772Z" fill="white"/>
</svg>
