<svg width="44" height="42" viewBox="0 0 44 42" fill="none" xmlns="http://www.w3.org/2000/svg">
<path d="M15.8584 35.422L15.2441 36.7432L24.3692 41.0083L24.9835 39.6872L15.8584 35.422Z" fill="white"/>
<path d="M31.5869 25.5477C29.4787 25.5477 27.5886 24.9646 26.4981 24.4543C25.0442 23.7619 23.0087 22.3406 21.6638 20.2997C19.9191 17.6757 19.7374 14.7237 21.1186 11.7717C24.0992 5.35744 28.57 1.12989 28.7517 0.947667C28.9698 0.729 29.297 0.692556 29.5514 0.801889L42.6004 6.92456C42.8549 7.03389 43.0366 7.32545 43.0366 7.617C43.0366 7.87211 42.6731 13.9948 39.6562 20.4454C37.7661 24.4179 34.4948 25.5477 31.5869 25.5477ZM29.406 2.369C28.3155 3.49878 24.8261 7.25256 22.4271 12.3912C21.264 14.9059 21.4094 17.3112 22.8633 19.4979C24.0265 21.2837 25.8802 22.5592 27.1161 23.1423C27.1888 23.1788 35.0763 26.7868 38.3477 19.8259C40.7467 14.6508 41.4009 9.585 41.5463 8.01789L29.406 2.369Z" fill="white"/>
<path d="M26.1631 23.479L19.4658 37.8799L20.7835 38.4959L27.4808 24.095L26.1631 23.479Z" fill="white"/>
<path d="M40.985 13.6236L21.144 17.0762L21.3927 18.5125L41.2336 15.06L40.985 13.6236Z" fill="white"/>
<path d="M11.4134 24.7817C8.5055 24.7817 5.1978 23.652 3.34404 19.6795C0.363483 13.2653 0 7.10617 0 6.85106C0 6.55951 0.145393 6.26795 0.436179 6.15862L13.4489 0.0723971C13.7033 -0.0369362 14.0304 -0.000491749 14.2485 0.218175C14.3939 0.363953 17.847 3.64395 20.7549 8.81906L19.4827 9.51151C17.2291 5.46617 14.5393 2.55062 13.5943 1.60306L1.49028 7.25195C1.63567 8.81906 2.28994 13.8848 4.68893 19.06C7.92392 26.0208 15.8115 22.4128 15.9205 22.3764L16.5385 23.6884C15.448 24.2351 13.5216 24.7817 11.4134 24.7817Z" fill="white"/>
<path d="M16.5022 23.7256L15.8843 22.4136C16.8293 21.9763 17.8834 21.211 18.7558 20.4092L19.7735 21.4661C18.3923 22.7781 17.0474 23.4705 16.5022 23.7256Z" fill="white"/>
<path d="M16.8695 22.7306L15.5518 23.3467L19.2537 31.3068L20.5714 30.6908L16.8695 22.7306Z" fill="white"/>
<path d="M2.01491 12.8549L1.81543 14.2988L17.9448 16.5389L18.1442 15.095L2.01491 12.8549Z" fill="white"/>
<path d="M16.3567 33.8935C12.3947 33.1282 10.1411 31.6339 10.1411 29.8117C10.1411 29.0464 10.5773 27.9166 12.5764 26.9326L13.2307 28.2446C12.1766 28.7548 11.595 29.338 11.595 29.8117C11.595 30.6135 13.158 31.7797 16.6475 32.4722L16.3567 33.8935Z" fill="white"/>
<path d="M26.4256 34.0762L26.2075 32.6185C27.5524 32.4363 28.7519 32.1447 29.7333 31.7803C30.4966 31.5251 31.0782 31.1971 31.5507 30.8691L32.3867 32.0718C31.8052 32.4727 31.0782 32.8371 30.2058 33.1651C29.1517 33.566 27.8432 33.8576 26.4256 34.0762Z" fill="white"/>
<path d="M33.8043 29.812H32.3503C32.3503 29.1195 31.0055 28.0262 28.0249 27.3338L28.352 25.876C31.8778 26.7142 33.8043 28.0991 33.8043 29.812Z" fill="white"/>
<path d="M33.8403 34.2578L33.5132 32.8365C35.9849 32.2898 37.9113 31.5245 38.8927 30.7227C39.2199 30.4676 39.5833 30.0667 39.5833 29.7023C39.5833 29.3014 39.1835 28.8276 38.4929 28.3538C37.8386 27.953 37.0026 27.5521 35.9122 27.1876L36.3847 25.8027C37.5842 26.2036 38.5656 26.641 39.2926 27.1147C40.4557 27.8801 41.0736 28.7547 41.0736 29.6658C41.0736 30.4312 40.6738 31.1601 39.8378 31.8525C38.6383 32.8365 36.5664 33.6383 33.8403 34.2578Z" fill="white"/>
<path d="M9.81416 34.1852C6.68821 33.4563 2.94434 32.0714 2.94434 29.7026C2.94434 28.0626 4.68905 26.7141 8.17849 25.6572L8.61467 27.0421C5.52506 27.9897 4.43461 29.0101 4.43461 29.7026C4.43461 30.5408 6.21568 31.8528 10.214 32.7639L9.81416 34.1852Z" fill="white"/>
</svg>
