<svg width="35" height="48" viewBox="0 0 35 48" fill="none" xmlns="http://www.w3.org/2000/svg">
<path d="M13.8692 30.7335C13.7315 30.7168 13.574 30.7134 13.4231 30.6801C12.8294 30.5399 12.239 30.3797 11.642 30.2528C11.4616 30.2161 11.1959 30.1894 11.081 30.2862C9.55246 31.6013 8.14197 31.7682 6.47889 30.8737C5.77364 31.2675 5.1668 31.7481 4.48124 31.9517C3.80879 32.152 3.05762 32.0686 2.27036 32.1153C2.26708 32.2054 2.25068 32.3857 2.25068 32.5626C2.2474 34.3449 2.28677 36.1306 2.231 37.9096C2.20804 38.6906 2.54262 39.3015 2.84112 39.949C3.85471 42.1485 4.8847 44.3381 5.89501 46.5377C6.17055 47.1385 5.99342 47.6825 5.50467 47.9028C5.00935 48.1264 4.59276 47.9328 4.29098 47.2987C3.06746 44.7286 1.84065 42.1619 0.643372 39.5785C0.479361 39.2247 0.403916 38.7975 0.400636 38.4036C0.380954 35.9136 0.397356 33.427 0.380954 30.9371C0.377674 30.6133 0.266147 30.2929 0.213663 29.9691C0.144778 29.5519 0.0266901 29.1314 0.0266901 28.7141C0.010289 25.5934 0.0594924 22.4726 0.00372856 19.3518C-0.0454748 16.6148 2.18508 15.0795 4.78958 15.9139C5.11104 16.0174 5.30457 16.0374 5.50795 15.7003C6.49857 14.0548 8.71929 13.8979 10.1363 14.6155C10.4053 14.749 10.5726 14.8225 10.8383 14.5555C12.1766 13.2003 14.1907 13.1102 15.7094 14.2984C15.7816 14.3552 15.8636 14.3919 15.9555 14.4486C17.1134 13.4373 18.4419 13.2204 19.836 13.7444C21.3219 14.3051 21.873 15.5568 21.9288 17.0855C21.9648 18.1268 21.9616 18.1302 22.9751 18.1268C23.8313 18.1268 24.6907 18.0768 25.4911 18.504C26.7244 19.1649 27.4297 20.1795 27.433 21.6114C27.4461 26.7749 27.5051 31.9384 27.4133 37.1019C27.3641 39.742 26.2357 41.8849 23.8608 43.2166C23.6738 43.3234 23.4967 43.6305 23.4869 43.8541C23.4475 44.8922 23.4803 45.9335 23.4672 46.9749C23.4573 47.7359 22.8997 48.1965 22.2961 47.8928C22.0403 47.766 21.7582 47.3888 21.7483 47.1151C21.6959 45.6498 21.7254 44.1812 21.7221 42.7126C21.7221 42.2654 22.0009 42.0351 22.3552 41.8982C24.7497 40.9837 25.5993 39.0711 25.6059 36.6413C25.619 31.7381 25.6092 26.835 25.6092 21.9319C25.6092 20.5634 25.0745 20.0093 23.7165 20.006C21.1054 19.9993 18.4944 20.0127 15.8866 19.9993C15.1354 19.996 14.4892 20.1795 14.1841 20.9405C13.8463 21.7783 13.8692 22.6228 14.4236 23.3704C14.7418 23.801 15.2305 23.9111 15.7455 23.9078C16.9691 23.9045 18.1926 23.9045 19.4161 23.9078C21.2137 23.9111 22.5881 25.303 22.529 27.1321C22.4831 28.4705 22.0993 29.7021 20.7938 30.3096C20.1607 30.6033 19.4325 30.6968 18.7404 30.857C18.2451 30.9705 17.7333 31.0339 17.2348 31.1407C15.1781 31.5879 14.0759 33.0065 13.5445 34.9691C13.0197 36.9016 12.9311 38.8809 12.977 40.8735C12.9803 41.0771 12.9934 41.2841 12.9836 41.4843C12.9573 42.0184 12.5539 42.4256 12.0848 42.4122C11.6124 42.3989 11.2385 42.0317 11.2516 41.4877C11.2943 39.8589 11.3271 38.23 11.4517 36.6079C11.5665 35.0792 11.9798 33.6139 12.7572 32.2855C13.0689 31.7515 13.4789 31.2742 13.8692 30.7335ZM10.0511 22.8197C10.0511 21.0373 10.0576 19.255 10.0478 17.4726C10.0412 16.6449 9.55902 16.1776 8.74225 16.1642C8.59792 16.1609 8.45031 16.1642 8.30598 16.1642C7.41704 16.1709 6.88236 16.6582 6.87908 17.5527C6.86596 21.0607 6.86596 24.5687 6.87908 28.0766C6.88236 29.0713 7.45312 29.5452 8.54543 29.5252C9.57214 29.5085 10.0478 29.0513 10.0511 28.0499C10.0543 26.311 10.0511 24.5653 10.0511 22.8197ZM5.03231 23.8878C5.03231 22.2756 5.02575 20.6602 5.03559 19.048C5.03887 18.5007 4.85846 18.0601 4.38283 17.7931C3.14946 17.0955 1.8669 17.8465 1.86362 19.265C1.86034 22.4158 1.86034 25.57 1.86362 28.7208C1.86034 29.7188 2.42781 30.2729 3.44468 30.2729C4.46811 30.2762 5.02903 29.7322 5.02903 28.7275C5.03231 27.1154 5.02903 25.4999 5.03231 23.8878ZM11.8978 22.0754C11.8978 23.8177 11.8945 25.5633 11.9011 27.3056C11.9044 27.9264 12.1274 28.4805 12.7244 28.6874C13.3674 28.9111 14.0661 28.9878 14.6434 28.4939C14.8467 28.3203 15.0173 28.0132 15.0567 27.7462C15.1387 27.1821 15.142 26.6014 15.1288 26.0306C15.1256 25.8938 14.9616 25.6801 14.8303 25.6434C13.2722 25.1895 12.134 23.7676 12.298 21.6014C12.4259 19.9159 13.187 18.8578 14.7582 18.2971C14.8959 18.247 15.1157 18.1101 15.1124 18.0234C15.0796 17.3658 15.1092 16.6749 14.9091 16.0674C14.6926 15.4133 13.8069 15.1863 12.9541 15.3999C12.3144 15.5601 11.9077 16.0908 11.9011 16.8451C11.888 18.5874 11.8978 20.3331 11.8978 22.0754ZM18.4616 25.7502C16.7722 25.7502 16.7722 25.7502 16.9198 27.4925C16.9231 27.5292 16.9231 27.566 16.9297 27.6027C17.0051 28.2101 17.4906 28.6975 18.0876 28.7509C18.3041 28.7709 18.5239 28.7609 18.7437 28.7575C19.5408 28.7408 20.0721 28.2135 20.0984 27.3957C20.1115 27.0052 20.0787 26.6147 20.1082 26.2275C20.1345 25.8737 19.9573 25.7602 19.6621 25.7536C19.2652 25.7436 18.8617 25.7502 18.4616 25.7502ZM18.4583 18.1302C18.6584 18.1302 18.8585 18.1302 19.0618 18.1302C20.1049 18.1302 20.059 18.1268 20.1148 17.0855C20.187 15.7337 19.3177 15.1729 18.0515 15.3899C17.1757 15.5367 16.7427 16.3745 16.9231 17.773C17.0215 18.524 17.694 17.9766 18.0778 18.1268C18.1893 18.1669 18.3303 18.1302 18.4583 18.1302Z" fill="white"/>
<path d="M13.8167 10.7948C13.5641 10.7948 13.3116 10.698 13.1213 10.501L8.74878 6.05184C8.36499 5.66132 8.36499 5.02715 8.74878 4.63664C9.13256 4.24612 9.7558 4.24612 10.1396 4.63664L14.5121 9.08584C14.8959 9.47636 14.8959 10.1105 14.5121 10.501C14.3219 10.6946 14.0693 10.7948 13.8167 10.7948Z" fill="white"/>
<path d="M19.5344 8.56797C18.9898 8.56797 18.5503 8.12071 18.5503 7.56665V1.00132C18.5503 0.447257 18.9898 0 19.5344 0C20.0789 0 20.5184 0.447257 20.5184 1.00132V7.56665C20.5184 8.12071 20.0789 8.56797 19.5344 8.56797Z" fill="white"/>
<path d="M25.1893 10.7942C24.9367 10.7942 24.6841 10.6974 24.4939 10.5004C24.1101 10.1099 24.1101 9.47576 24.4939 9.08524L29.0108 4.48918C29.3946 4.09866 30.0178 4.09866 30.4016 4.48918C30.7854 4.87969 30.7854 5.51386 30.4016 5.90438L25.888 10.5004C25.6945 10.694 25.4419 10.7942 25.1893 10.7942Z" fill="white"/>
<path d="M34.0164 16.6755H27.4494C26.9049 16.6755 26.4653 16.2282 26.4653 15.6742C26.4653 15.1201 26.9049 14.6729 27.4494 14.6729H34.0164C34.561 14.6729 35.0005 15.1201 35.0005 15.6742C35.0005 16.2249 34.561 16.6755 34.0164 16.6755Z" fill="white"/>
</svg>
