<svg width="50" height="47" viewBox="0 0 50 47" fill="none" xmlns="http://www.w3.org/2000/svg">
<path d="M20.5442 46.09C19.8191 46.09 19.1343 45.8504 18.5704 45.4112L10.7153 39.3026L11.7224 38.0649L19.6177 44.1735C19.9803 44.453 20.4637 44.5728 20.9873 44.453C21.5513 44.3332 22.0749 44.0138 22.4375 43.5347L24.0891 41.4586L25.3378 42.4567L23.6862 44.5329C23.082 45.3314 22.1958 45.8504 21.2693 46.05C21.0276 46.09 20.7859 46.09 20.5442 46.09Z" fill="white"/>
<path d="M38.5507 25.728L37.3019 24.7299L38.7118 22.9732C39.2355 22.3344 39.2355 20.6176 38.7118 18.3818C38.4299 17.1041 38.7521 15.6269 39.6786 14.509L47.5337 4.48771C47.4934 4.36793 47.292 3.80898 45.9626 2.77092C44.593 1.73286 44.0291 1.65301 43.9082 1.65301L35.9726 11.6743C35.0864 12.7922 33.7571 13.5109 32.4278 13.5109C30.1317 13.5508 28.4398 13.95 27.9162 14.5888L25.0158 18.262L23.7671 17.2638L26.6674 13.5907C27.5133 12.5127 29.4469 11.9138 32.4278 11.8739C33.2737 11.8739 34.1599 11.3948 34.7642 10.6362L42.7401 0.57502C43.022 0.215691 43.6666 -0.263414 44.9153 0.175766C45.5195 0.415318 46.2043 0.814572 47.01 1.45338C49.0644 3.0504 49.7089 4.36793 48.9033 5.36607L40.9274 15.4273C40.3231 16.1859 40.0814 17.1441 40.2828 17.9426C40.9274 20.8172 40.8468 22.8135 40.0009 23.8915L38.5507 25.728Z" fill="white"/>
<path d="M38.968 6.59277L37.9746 7.8501L42.8903 11.6653L43.8837 10.4079L38.968 6.59277Z" fill="white"/>
<path d="M22.9613 39.3822L17.2009 34.9105C16.8384 34.6311 16.7981 34.1519 17.0801 33.7926L26.4256 21.9348C26.5464 21.7751 26.7478 21.6553 26.9492 21.6154C27.1506 21.5754 27.3923 21.6553 27.5535 21.7751L32.3068 25.4482L31.2997 26.6859L27.1909 23.4919L18.8525 34.1519L23.9683 38.1445L22.9613 39.3822Z" fill="white"/>
<path d="M10.6749 37.7459L9.58728 36.5481C14.7837 31.9567 15.1462 27.1257 15.1462 27.0858C15.1462 26.7664 15.3879 26.4869 15.7102 26.3671C17.2812 25.8481 20.9066 21.2167 20.826 20.1787C20.7052 19.7395 20.2621 19.3403 19.7787 19.1806C19.3759 19.0608 19.0536 19.1806 18.7716 19.4201C18.1674 19.9791 17.1201 20.6578 15.9519 21.4164C14.6628 22.2548 13.1724 23.213 12.0848 24.1712C10.0707 25.9279 8.58022 27.9242 8.58022 27.9242C8.45937 28.0839 8.25796 28.2037 8.05655 28.2436L4.3103 28.9224L4.02832 27.3653L7.45232 26.7664C7.9357 26.1276 9.3053 24.4906 10.9972 23.0134C12.1653 22.0153 13.6961 21.0171 15.0254 20.1388C16.113 19.4201 17.1201 18.7813 17.6437 18.3022C18.3285 17.6634 19.255 17.4238 20.1815 17.6634C21.1886 17.9429 22.0748 18.7813 22.3568 19.7794C22.8804 21.616 18.8522 26.4071 16.7172 27.6447C16.5158 29.0821 15.5088 33.5138 10.6749 37.7459Z" fill="white"/>
<path d="M13.0919 43.8943C10.8763 43.4551 9.22477 42.0178 8.53997 41.379L5.80078 41.7783L5.55908 40.1813L9.14421 39.7021L9.42618 40.0215C9.42618 40.0215 11.118 41.898 13.4141 42.3372L13.0919 43.8943Z" fill="white"/>
<path d="M34.804 31.2781C34.2804 31.2781 33.797 31.1184 33.3941 30.799C32.9108 30.4396 32.5885 29.8807 32.5079 29.2818L32.4274 28.643C32.3468 28.0441 32.5079 27.4452 32.9108 26.9661C33.3136 26.487 33.8372 26.1676 34.4415 26.0878L36.2139 25.8881C36.8181 25.8083 37.4224 25.968 37.9058 26.3672C38.3891 26.7665 38.7114 27.2855 38.792 27.8844L38.8725 28.5232C38.9531 29.1221 38.792 29.721 38.3891 30.2001C37.9863 30.6792 37.4627 30.9986 36.8584 31.0784L35.086 31.2781C35.0054 31.2781 34.9249 31.2781 34.804 31.2781ZM34.1192 29.0822C34.1595 29.2818 34.2401 29.4415 34.4012 29.5613C34.5623 29.681 34.7235 29.721 34.9249 29.721L36.6973 29.5213C36.8987 29.4814 37.0598 29.4016 37.1807 29.2419C37.3015 29.0822 37.3418 28.9225 37.3418 28.7228L37.2612 28.084C37.221 27.8844 37.1404 27.7247 36.9793 27.6049C36.8181 27.4851 36.657 27.4452 36.4556 27.4452L34.6429 27.6448C34.4415 27.6848 34.2804 27.7646 34.1595 27.9243C34.0387 28.084 33.9984 28.2437 33.9984 28.4434L34.1192 29.0822Z" fill="white"/>
<path d="M33.3939 35.0309C32.2257 35.0309 31.2187 34.1925 31.0978 32.9947L31.0173 32.3559C30.8561 31.0783 31.7826 29.9604 33.0314 29.8007L34.8038 29.6011C36.0525 29.4414 37.2207 30.3597 37.3819 31.5973L37.4624 32.2362C37.543 32.835 37.3819 33.4339 36.979 33.913C36.5762 34.3921 36.0525 34.7115 35.4483 34.7914L33.6759 34.991C33.5953 35.0309 33.5148 35.0309 33.3939 35.0309ZM32.7091 32.835C32.7494 33.2343 33.1119 33.4738 33.5148 33.4339L35.2872 33.2343C35.4886 33.1944 35.6497 33.1145 35.7706 32.9548C35.8914 32.7951 35.9317 32.6354 35.9317 32.4358L35.8511 31.797C35.8108 31.3977 35.4483 31.1182 35.0455 31.1981L33.2731 31.3977C33.0716 31.4376 32.9105 31.5175 32.7897 31.6772C32.6688 31.8369 32.6285 31.9966 32.6285 32.1962L32.7091 32.835Z" fill="white"/>
<path d="M30.2118 38.1847C29.0436 38.1847 28.0365 37.3463 27.9157 36.1485L27.8351 35.5097C27.674 34.2321 28.6005 33.1142 29.8492 32.9545L31.6217 32.7549C32.8704 32.5952 34.0386 33.5135 34.1997 34.7512L34.2803 35.39C34.3609 35.9888 34.1997 36.5877 33.7969 37.0668C33.3941 37.5459 32.8704 37.8653 32.2662 37.9452L30.4938 38.1448C30.3729 38.1847 30.2923 38.1847 30.2118 38.1847ZM29.4867 35.9888C29.527 36.3881 29.8895 36.6276 30.2923 36.5877L32.0648 36.3881C32.2662 36.3482 32.4273 36.2683 32.5482 36.1086C32.669 35.9489 32.7093 35.7892 32.7093 35.5896L32.6287 34.9508C32.5884 34.5515 32.2259 34.272 31.8231 34.3519L30.0506 34.5515C29.8492 34.5915 29.6881 34.6713 29.5673 34.831C29.4464 34.9907 29.4061 35.1504 29.4061 35.35L29.4867 35.9888Z" fill="white"/>
<path d="M27.4725 41.6589C26.3043 41.6589 25.2973 40.8204 25.1764 39.6227L25.0959 38.9839C24.9347 37.7062 25.8612 36.5883 27.11 36.4286L28.8824 36.229C30.1714 36.0693 31.2993 36.9876 31.4605 38.2253L31.541 38.8641C31.7022 40.1417 30.7757 41.2596 29.5269 41.4193L27.7545 41.6189C27.6739 41.6589 27.5531 41.6589 27.4725 41.6589ZM29.1644 37.7861C29.1241 37.7861 29.1241 37.7861 29.0838 37.7861L27.3114 37.9857C27.11 38.0256 26.9488 38.1055 26.828 38.2652C26.7072 38.4249 26.6669 38.5846 26.6669 38.7842L26.7474 39.423C26.7877 39.8223 27.1503 40.0618 27.5531 40.0219L29.3255 39.8223C29.5269 39.7824 29.688 39.7025 29.8089 39.5428C29.9297 39.3831 29.97 39.2234 29.97 39.0238L29.8895 38.385C29.8492 38.0256 29.5269 37.7861 29.1644 37.7861Z" fill="white"/>
<path d="M2.17524 43.9742L1.97383 42.3772L5.07557 42.0178L3.30315 27.485L0.201412 27.8443L0 26.2473L3.90738 25.7682C4.1088 25.7283 4.35049 25.8081 4.51162 25.9279C4.67275 26.0477 4.7936 26.2473 4.83388 26.4469L6.80771 42.5369C6.84799 42.9761 6.56602 43.3753 6.12291 43.4152L2.17524 43.9742Z" fill="white"/>
</svg>
