<svg width="43" height="43" viewBox="0 0 43 43" fill="none" xmlns="http://www.w3.org/2000/svg">
<path d="M16.1243 30.7025L12.2976 26.8758C11.5688 26.1469 11.5688 25.0536 12.2976 24.3247L25.5999 11.0225L31.9776 17.4002L18.6754 30.7025C17.9465 31.4313 16.8532 31.4313 16.1243 30.7025Z" stroke="white" stroke-width="2" stroke-miterlimit="10" stroke-linecap="round"/>
<path d="M10.5667 32.4336L1.91113 41.0892" stroke="white" stroke-width="2" stroke-miterlimit="10" stroke-linecap="round"/>
<path d="M15.578 30.1557L11.9335 33.8001L9.2002 31.0668L12.8446 27.4224" stroke="white" stroke-width="2" stroke-miterlimit="10" stroke-linecap="round"/>
<path d="M35.6219 4.64453L29.2441 11.0223" stroke="white" stroke-width="2" stroke-miterlimit="10" stroke-linecap="round"/>
<path d="M41.0887 10.1111L32.8887 1.91113" stroke="white" stroke-width="2" stroke-miterlimit="10" stroke-linecap="round"/>
<path d="M31.9775 13.7557L38.3553 7.37793" stroke="white" stroke-width="2" stroke-miterlimit="10" stroke-linecap="round"/>
<path d="M25.5996 11.0224L23.7773 9.2002" stroke="white" stroke-width="2" stroke-miterlimit="10" stroke-linecap="round"/>
<path d="M33.7998 19.2221L31.9775 17.3999" stroke="white" stroke-width="2" stroke-miterlimit="10" stroke-linecap="round"/>
<path d="M12.8447 23.7778H25.6003" stroke="white" stroke-width="2" stroke-miterlimit="10" stroke-linecap="round"/>
<path d="M18.7666 17.8555L20.5888 19.6777" stroke="white" stroke-width="2" stroke-miterlimit="10" stroke-linecap="round"/>
<path d="M21.8643 14.7578L23.6865 16.58" stroke="white" stroke-width="2" stroke-miterlimit="10" stroke-linecap="round"/>
</svg>
