<svg width="27" height="49" viewBox="0 0 27 49" fill="none" xmlns="http://www.w3.org/2000/svg">
<path d="M21.3903 4.91699H10.2979" stroke="white" stroke-width="2" stroke-miterlimit="10" stroke-linecap="round" stroke-linejoin="round"/>
<path d="M11.9395 4.91666C11.9395 2.74074 12.5488 1 14.0017 1C15.0485 1 14.861 1.55704 15.8453 1.55704C16.8295 1.55704 16.6577 1 17.6888 1C19.1261 1 19.7511 2.74074 19.7511 4.91666" stroke="white" stroke-width="2" stroke-miterlimit="10" stroke-linecap="round" stroke-linejoin="round"/>
<path d="M19.2355 4.91699C19.5636 5.54366 19.7511 6.29217 19.7511 7.09291V8.83365C19.7511 11.2359 18.0013 13.1855 15.8453 13.1855C13.6893 13.1855 11.9395 11.2359 11.9395 8.83365V7.09291C11.9395 6.29217 12.1269 5.54366 12.455 4.91699" stroke="white" stroke-width="2" stroke-miterlimit="10" stroke-linecap="round" stroke-linejoin="round"/>
<path d="M19.4219 10.5908C23.0933 10.8519 25.9993 14.2464 25.9993 18.4067V34.0733C25.9993 35.5182 24.9525 36.6844 23.6558 36.6844C22.7965 36.6844 22.0934 35.9011 22.0934 34.9437V20.1475" stroke="white" stroke-width="2" stroke-miterlimit="10" stroke-linecap="round" stroke-linejoin="round"/>
<path d="M15.8447 34.9443V44.5184C15.8447 46.4332 17.2508 47.9999 18.9694 47.9999C19.8286 47.9999 20.5317 47.2165 20.5317 46.2591V34.9443" stroke="white" stroke-width="2" stroke-miterlimit="10" stroke-linecap="round" stroke-linejoin="round"/>
<path d="M15.8447 34.9443H22.094" stroke="white" stroke-width="2" stroke-miterlimit="10" stroke-linecap="round" stroke-linejoin="round"/>
<path d="M15.8442 44.5184C15.8442 46.4332 14.4381 47.9999 12.7195 47.9999C11.8603 47.9999 11.1572 47.2165 11.1572 46.2591V34.9443" stroke="white" stroke-width="2" stroke-miterlimit="10" stroke-linecap="round" stroke-linejoin="round"/>
<path d="M12.3139 10.6787C9.72045 11.1313 7.48633 13.0461 6.43957 15.8139L1.12768 29.9661C0.78397 30.8538 1.15893 31.8635 1.95571 32.229C3.14308 32.7861 4.51792 32.1594 5.01786 30.8364L8.97054 20.3224C9.01741 20.1831 9.17364 20.0787 9.31425 20.1309C9.45486 20.1483 9.56422 20.2876 9.56422 20.4616L9.59546 34.9446H15.8448" stroke="white" stroke-width="2" stroke-miterlimit="10" stroke-linecap="round" stroke-linejoin="round"/>
<path d="M5.6899 34.9441C5.6899 33.4993 4.64314 32.333 3.34641 32.333C2.04969 32.333 1.00293 33.4993 1.00293 34.9441V47.9996" stroke="white" stroke-width="2" stroke-miterlimit="10" stroke-linecap="round" stroke-linejoin="round"/>
</svg>
