<svg width="127" height="131" viewBox="0 0 127 131" fill="none" xmlns="http://www.w3.org/2000/svg">
<path d="M63.4888 95.2849C80.0523 95.2849 93.4796 81.9448 93.4796 65.4888C93.4796 49.0329 80.0523 35.6927 63.4888 35.6927C46.9254 35.6927 33.498 49.0329 33.498 65.4888C33.498 81.9448 46.9254 95.2849 63.4888 95.2849Z" fill="#FBC70B"/>
<path d="M65.669 28.6793H64.0728C62.589 28.6793 61.375 27.4731 61.375 25.999V2.68031C61.375 1.20614 62.589 0 64.0728 0H65.669C67.1528 0 68.3669 1.20614 68.3669 2.68031V25.999C68.3669 27.4731 67.1528 28.6793 65.669 28.6793Z" fill="#FBC70B"/>
<path d="M43.4571 34.442L42.1757 35.3801C40.9841 36.2512 39.2755 35.9831 38.3987 34.777L24.5949 15.9255C23.7181 14.7417 23.9879 13.0442 25.2019 12.1731L26.4833 11.235C27.6749 10.3639 29.3835 10.6319 30.2603 11.838L44.0642 30.6895C44.9409 31.8957 44.6712 33.5709 43.4571 34.442Z" fill="#FBC70B"/>
<path d="M28.9116 52.065L28.417 53.5615C27.9673 54.9686 26.4386 55.728 25.0222 55.2813L2.69771 48.0892C1.28136 47.6424 0.516973 46.1236 0.966611 44.7164L1.46121 43.2199C1.91085 41.8128 3.43962 41.0534 4.85597 41.5001L27.1805 48.7146C28.5968 49.1613 29.3837 50.6801 28.9116 52.065Z" fill="#FBC70B"/>
<path d="M27.5849 74.8252L28.0795 76.3217C28.5292 77.7289 27.7648 79.2477 26.3484 79.6945L4.02394 86.909C2.60758 87.3557 1.07882 86.5963 0.62918 85.1891L0.134579 83.6926C-0.315058 82.2854 0.449325 80.7666 1.86568 80.3199L24.1902 73.1054C25.584 72.6587 27.1128 73.4404 27.5849 74.8252Z" fill="#FBC70B"/>
<path d="M39.9721 94.0341L41.2535 94.9722C42.4451 95.8433 42.7148 97.5185 41.8605 98.7246L28.0567 117.576C27.1799 118.76 25.4937 119.028 24.2797 118.179L22.9983 117.241C21.8067 116.37 21.5369 114.695 22.3912 113.489L36.1951 94.6372C37.0719 93.431 38.758 93.163 39.9721 94.0341Z" fill="#FBC70B"/>
<path d="M61.3306 102.321H62.9268C64.4106 102.321 65.6247 103.527 65.6247 105.001V128.32C65.6247 129.794 64.4106 131 62.9268 131H61.3306C59.8468 131 58.6328 129.794 58.6328 128.32V105.001C58.6328 103.527 59.8468 102.321 61.3306 102.321Z" fill="#FBC70B"/>
<path d="M83.5417 96.5581L84.8232 95.62C86.0147 94.7489 87.7234 95.0169 88.6001 96.223L102.404 115.075C103.281 116.258 103.011 117.956 101.797 118.827L100.516 119.765C99.324 120.636 97.6154 120.368 96.7386 119.162L82.9347 100.288C82.0579 99.1044 82.3277 97.4292 83.5417 96.5581Z" fill="#FBC70B"/>
<path d="M98.0884 78.9127L98.583 77.4162C99.0327 76.0091 100.561 75.2496 101.978 75.6964L124.302 82.9109C125.719 83.3576 126.483 84.8764 126.033 86.2836L125.539 87.7801C125.089 89.1873 123.56 89.9467 122.144 89.5L99.8195 82.3078C98.4032 81.8387 97.6163 80.3199 98.0884 78.9127Z" fill="#FBC70B"/>
<path d="M99.4143 56.1525L98.9197 54.656C98.4701 53.2488 99.2345 51.73 100.651 51.2832L122.975 44.0687C124.392 43.622 125.92 44.3814 126.37 45.7886L126.865 47.2851C127.314 48.6923 126.55 50.2111 125.134 50.6578L102.809 57.8723C101.415 58.3414 99.8865 57.5596 99.4143 56.1525Z" fill="#FBC70B"/>
<path d="M87.0278 36.9659L85.7463 36.0278C84.5548 35.1567 84.285 33.4815 85.1393 32.2754L98.9431 13.4239C99.8199 12.2401 101.506 11.972 102.72 12.8208L104.002 13.7589C105.193 14.63 105.463 16.3052 104.609 17.5113L90.8047 36.3628C89.9279 37.569 88.2418 37.837 87.0278 36.9659Z" fill="#FBC70B"/>
<path d="M54.4734 29.8184L52.9671 30.3098C51.5507 30.7565 50.022 29.9971 49.5723 28.59L45.1209 14.9651C44.6713 13.5579 45.4357 12.0391 46.852 11.5924L48.3583 11.101C49.7747 10.6542 51.3034 11.4137 51.7531 12.8208L56.2045 26.4457C56.6541 27.8305 55.8897 29.3494 54.4734 29.8184Z" fill="#FBC70B"/>
<path d="M35.6551 41.7234L34.7109 42.9966C33.8341 44.1804 32.1479 44.4484 30.9339 43.5996L19.2658 35.179C18.0743 34.3079 17.8045 32.6327 18.6588 31.4266L19.6031 30.1534C20.4799 28.9696 22.166 28.7016 23.38 29.5504L35.0706 37.971C36.2621 38.8421 36.5319 40.5396 35.6551 41.7234Z" fill="#FBC70B"/>
<path d="M27.494 62.3395V63.9254C27.494 65.3995 26.28 66.6057 24.7962 66.6057H10.3853C8.90152 66.6057 7.6875 65.3995 7.6875 63.9254V62.3395C7.6875 60.8653 8.90152 59.6592 10.3853 59.6592H24.7962C26.28 59.6592 27.494 60.8653 27.494 62.3395Z" fill="#FBC70B"/>
<path d="M33.0922 83.7819L34.0365 85.0551C34.9133 86.2389 34.6435 87.9364 33.4295 88.8075L21.7614 97.2281C20.5698 98.0992 18.8612 97.8312 17.9844 96.6251L17.0402 95.3519C16.1634 94.1681 16.4332 92.4706 17.6472 91.5995L29.3153 83.1788C30.5293 82.3301 32.2154 82.5981 33.0922 83.7819Z" fill="#FBC70B"/>
<path d="M50.3147 97.8759L51.821 98.3673C53.2374 98.814 54.0017 100.333 53.5521 101.74L49.1007 115.365C48.6511 116.772 47.1223 117.531 45.7059 117.085L44.1997 116.593C42.7833 116.147 42.0189 114.628 42.4686 113.221L46.92 99.5957C47.3696 98.1886 48.8984 97.4292 50.3147 97.8759Z" fill="#FBC70B"/>
<path d="M72.5708 99.216L74.077 98.7246C75.4934 98.2779 77.0222 99.0373 77.4718 100.444L81.9232 114.069C82.3729 115.477 81.6085 116.995 80.1921 117.442L78.6858 117.934C77.2695 118.38 75.7407 117.621 75.2911 116.214L70.8397 102.589C70.39 101.204 71.1544 99.6627 72.5708 99.216Z" fill="#FBC70B"/>
<path d="M91.3659 87.311L92.3101 86.0378C93.1869 84.854 94.873 84.586 96.0871 85.4348L107.755 93.8554C108.947 94.7265 109.216 96.4017 108.362 97.6078L107.418 98.881C106.541 100.065 104.855 100.333 103.641 99.484L91.9729 91.0634C90.7813 90.1923 90.5115 88.4948 91.3659 87.311Z" fill="#FBC70B"/>
<path d="M99.5488 66.695V65.1091C99.5488 63.635 100.763 62.4288 102.247 62.4288H116.658C118.141 62.4288 119.355 63.635 119.355 65.1091V66.695C119.355 68.1692 118.141 69.3753 116.658 69.3753H102.247C100.763 69.3753 99.5488 68.1692 99.5488 66.695Z" fill="#FBC70B"/>
<path d="M93.9512 45.2302L93.007 43.957C92.1302 42.7732 92.4 41.0757 93.614 40.2046L105.282 31.784C106.474 30.9129 108.182 31.1809 109.059 32.387L110.003 33.6602C110.88 34.844 110.61 36.5415 109.396 37.4126L97.7282 45.8332C96.5141 46.7043 94.8055 46.4363 93.9512 45.2302Z" fill="#FBC70B"/>
<path d="M76.7313 31.1586L75.2251 30.6672C73.8087 30.2205 73.0443 28.7016 73.494 27.2945L77.9454 13.6696C78.395 12.2624 79.9238 11.503 81.3401 11.9497L82.8464 12.4411C84.2628 12.8878 85.0272 14.4067 84.5775 15.8138L80.1261 29.4387C79.6765 30.8236 78.1477 31.6053 76.7313 31.1586Z" fill="#FBC70B"/>
</svg>
