<svg width="49" height="49" viewBox="0 0 49 49" fill="none" xmlns="http://www.w3.org/2000/svg">
<path d="M45.0612 7.8874C44.8725 7.8874 44.7468 7.82451 44.621 7.69873L41.0363 4.11408C40.7848 3.86252 40.7848 3.48519 41.0363 3.23363L43.1745 1.09542C43.9292 0.340753 45.0612 0.340753 45.8159 1.09542L47.6396 2.91919C48.3943 3.67386 48.3943 4.80585 47.6396 5.56052L45.5014 7.69873C45.3756 7.82451 45.187 7.8874 45.0612 7.8874ZM42.357 3.67386L45.0612 6.37807L46.7592 4.68007C47.0108 4.42852 47.0108 4.05119 46.7592 3.79963L44.9354 1.97586C44.6839 1.7243 44.3065 1.7243 44.055 1.97586L42.357 3.67386Z" fill="#4A63FE"/>
<path d="M41.6018 13.17C41.0987 13.17 40.5956 12.9814 40.2182 12.604L36.1305 8.51628C35.3758 7.76162 35.3758 6.50384 36.1305 5.74918L38.8976 2.98208C39.6522 2.22741 40.91 2.22741 41.6647 2.98208L45.7524 7.06984C46.5071 7.82451 46.5071 9.08228 45.7524 9.83695L42.9853 12.604C42.608 12.9814 42.1049 13.17 41.6018 13.17ZM40.2182 3.61096C40.0296 3.61096 39.8409 3.67385 39.7151 3.79963L36.948 6.56673C36.6964 6.81829 36.6964 7.3214 36.948 7.57295L41.0358 11.6607C41.2873 11.9123 41.7904 11.9123 42.042 11.6607L44.8091 8.89361C44.9349 8.76784 44.9978 8.57917 44.9978 8.3905C44.9978 8.20184 44.9349 8.01317 44.8091 7.88739L40.7213 3.79963C40.5955 3.67385 40.4069 3.61096 40.2182 3.61096Z" fill="#4A63FE"/>
<path d="M14.4958 45.4949C13.867 45.4949 13.2381 45.2433 12.735 44.8031L3.86765 35.9358C2.92432 34.9925 2.92432 33.4203 3.86765 32.4769L5.88009 30.4645C6.13165 30.2129 6.50898 30.2129 6.76054 30.4645C7.01209 30.716 7.01209 31.0934 6.76054 31.3449L4.7481 33.3574C4.30788 33.7976 4.30788 34.5523 4.7481 35.0554L13.6783 43.9227C14.1185 44.3629 14.8732 44.3629 15.3763 43.9227L28.2056 31.0934L17.6403 20.5281L16.0052 22.1632C15.7536 22.4147 15.3763 22.4147 15.1247 22.1632C14.8732 21.9116 14.8732 21.5343 15.1247 21.2827L17.2001 19.2074C17.4516 18.9558 17.829 18.9558 18.0805 19.2074L29.5263 30.6532C29.7778 30.9047 29.7778 31.282 29.5263 31.5336L16.2567 44.8031C15.7536 45.2433 15.1247 45.4949 14.4958 45.4949Z" fill="#4A63FE"/>
<path d="M14.4337 38.7657C13.7419 38.7657 13.113 38.5142 12.6099 38.0111L4.18281 29.5211C4.05703 29.3953 3.99414 29.2695 3.99414 29.0809C3.99414 28.8922 4.05703 28.7664 4.18281 28.6407L13.3017 19.5218C13.4274 19.396 13.5532 19.3331 13.7419 19.3331C13.9306 19.3331 14.0563 19.396 14.1821 19.5218L22.6721 27.9489C23.1752 28.452 23.4268 29.0809 23.4268 29.7727C23.4268 30.4644 23.1752 31.0933 22.6721 31.5964L16.2574 38.0111C15.7543 38.4513 15.1254 38.7657 14.4337 38.7657ZM5.50347 29.0809L13.5532 37.1306C14.0563 37.6337 14.9368 37.6337 15.4399 37.1306L21.7916 30.716C22.0432 30.4644 22.169 30.15 22.169 29.7727C22.169 29.3953 22.0432 29.0809 21.7916 28.8293L13.7419 20.8425L5.50347 29.0809Z" fill="#4A63FE"/>
<path d="M14.4967 48.0104C13.176 48.0104 11.9182 47.5073 10.9749 46.564L2.10757 37.6967C1.16424 36.7533 0.661133 35.4956 0.661133 34.1749C0.661133 32.8542 1.16424 31.5965 2.10757 30.6531L15.3771 17.3836C18.5844 14.1763 23.4269 13.233 27.5775 14.9309L35.8788 7.3843C36.1304 7.13275 36.5077 7.19563 36.7593 7.3843L41.2872 11.9123C41.5388 12.1638 41.5388 12.5412 41.2872 12.7927L39.9666 14.1763L33.6777 21.0312C35.3757 25.1818 34.4324 30.0242 31.2251 33.2316L18.0184 46.564C17.0751 47.5073 15.8173 48.0104 14.4967 48.0104ZM23.364 15.3712C20.7855 15.3712 18.2071 16.3774 16.3204 18.264L2.98802 31.5336C2.29624 32.2882 1.91891 33.1687 1.91891 34.1749C1.91891 35.1811 2.29624 36.1244 2.98802 36.8162L11.8553 45.6835C12.5471 46.3753 13.4904 46.7526 14.4967 46.7526C15.5029 46.7526 16.4462 46.3753 17.138 45.6835L30.4075 32.414C33.3004 29.5211 34.1179 24.9931 32.4199 21.2198C32.2942 20.9683 32.357 20.7167 32.5457 20.528L40.0295 12.3525L36.2561 8.70496L28.0806 16.1887C27.8919 16.3774 27.6404 16.3774 27.3888 16.3145C26.1311 15.6856 24.7475 15.3712 23.364 15.3712Z" fill="#4A63FE"/>
<path d="M26.9482 18.0125C26.8853 18.0125 26.7595 18.0125 26.6967 17.9496C25.2502 17.3207 23.678 17.0692 22.1058 17.3207C21.7284 17.3836 21.414 17.132 21.414 16.8176C21.3511 16.5032 21.6027 16.1258 21.9171 16.1258C23.678 15.8743 25.5647 16.1258 27.1998 16.8805C27.5142 17.0063 27.64 17.3836 27.5142 17.698C27.3884 17.8867 27.1998 18.0125 26.9482 18.0125Z" fill="#4A63FE"/>
<path d="M19.7158 18.0125C19.4642 18.0125 19.2755 17.8867 19.1498 17.6352C19.024 17.3207 19.1498 16.9434 19.4642 16.8176L19.6529 16.7547C19.9673 16.629 20.3446 16.7547 20.4704 17.0692C20.5962 17.3836 20.4704 17.761 20.156 17.8867L19.9673 17.9496C19.9044 18.0125 19.8415 18.0125 19.7158 18.0125Z" fill="#4A63FE"/>
</svg>
