<svg width="33" height="40" viewBox="0 0 33 40" fill="none" xmlns="http://www.w3.org/2000/svg">
<path d="M31.5649 28.2609V32.3913C31.5649 33.7956 30.491 34.8696 29.0867 34.8696H26.6084" stroke="white" stroke-width="2" stroke-miterlimit="10" stroke-linecap="round" stroke-linejoin="round"/>
<path d="M25.7827 15.8696H15.8696V30.7391H25.7827V15.8696Z" stroke="white" stroke-width="2" stroke-miterlimit="10" stroke-linecap="round" stroke-linejoin="round"/>
<path d="M24.13 39V34.8696H20.8257V39" stroke="white" stroke-width="2" stroke-miterlimit="10" stroke-linecap="round" stroke-linejoin="round"/>
<path d="M5.13037 1V39" stroke="white" stroke-width="2" stroke-miterlimit="10" stroke-linecap="round" stroke-linejoin="round"/>
<path d="M1.82568 39V8.43475" stroke="white" stroke-width="2" stroke-miterlimit="10" stroke-linecap="round" stroke-linejoin="round"/>
<path d="M12.4824 10.8305C13.0607 11.3262 13.8042 11.6566 14.6302 11.6566C15.4563 11.6566 16.1998 11.3262 16.7781 10.8305C17.3563 11.3262 18.0998 11.6566 18.9259 11.6566C19.752 11.6566 20.4955 11.3262 21.0737 10.8305C21.652 11.3262 22.3955 11.6566 23.2216 11.6566C24.0476 11.6566 24.7911 11.3262 25.3694 10.8305C25.9476 11.3262 26.6911 11.6566 27.5172 11.6566C28.3433 11.6566 29.0868 11.3262 29.665 10.8305" stroke="white" stroke-width="2" stroke-miterlimit="10" stroke-linecap="round" stroke-linejoin="round"/>
<path d="M15.8696 20H25.7827" stroke="white" stroke-width="2" stroke-miterlimit="10" stroke-linecap="round" stroke-linejoin="round"/>
<path d="M20.8257 1C22.5605 1 24.0474 2.07391 24.6257 3.56087C25.0387 4.46957 25.8648 5.13043 26.9387 5.13043H29.0866C30.4909 5.13043 31.5648 6.20435 31.5648 7.6087V25.0391" stroke="white" stroke-width="2" stroke-miterlimit="10" stroke-linecap="round" stroke-linejoin="round"/>
<path d="M17.5217 39V34.8696H12.5652C11.1608 34.8696 10.0869 33.7956 10.0869 32.3913V7.60868C10.0869 6.20433 11.1608 5.13042 12.5652 5.13042H14.713C15.7043 5.13042 16.613 4.46955 17.026 3.56085" stroke="white" stroke-width="2" stroke-miterlimit="10" stroke-linecap="round" stroke-linejoin="round"/>
<path d="M20.9086 4.63477C19.8347 4.63477 18.926 3.72607 18.926 2.65216H5.13037" stroke="white" stroke-width="2" stroke-miterlimit="10" stroke-linecap="round" stroke-linejoin="round"/>
<path d="M5.13043 1H1V5.13043H5.13043" stroke="white" stroke-width="2" stroke-miterlimit="10" stroke-linecap="round" stroke-linejoin="round"/>
</svg>
