<svg width="46" height="50" viewBox="0 0 46 50" fill="none" xmlns="http://www.w3.org/2000/svg">
<path d="M5.52531 35.1821H4.05512C2.43792 35.1821 1.11475 33.8627 1.11475 32.2502C1.11475 31.0286 1.86209 29.9536 3.01374 29.5139C3.28327 29.4161 3.58956 29.4772 3.79784 29.6849L7.49781 33.3741C7.64483 33.5207 7.71834 33.7161 7.71834 33.9116C7.71834 34.1071 7.62033 34.3025 7.47331 34.4369C6.92199 34.9255 6.22365 35.1821 5.52531 35.1821ZM3.13626 31.1141C2.79321 31.3829 2.58493 31.7982 2.58493 32.2624C2.58493 33.0687 3.24652 33.7284 4.05512 33.7284H5.52531C5.59882 33.7284 5.67233 33.7284 5.74584 33.7161L3.13626 31.1141Z" fill="white"/>
<path d="M5.96649 25.5191C5.73371 25.5191 5.50093 25.4825 5.26815 25.4092L3.01386 24.664C2.63406 24.5419 2.42579 24.1265 2.5483 23.7356C2.67082 23.3569 3.08737 23.1492 3.47942 23.2714L5.73371 24.0166C6.00324 24.1021 6.28503 24.041 6.48105 23.8456L9.36017 20.9748C9.5562 20.7793 9.62971 20.4862 9.53169 20.2296L8.78435 17.9819C8.66183 17.6032 8.87011 17.1878 9.24991 17.0535C9.62971 16.9191 10.0463 17.139 10.181 17.5177L10.9284 19.7654C11.1979 20.5595 10.9896 21.4268 10.4016 22.0132L7.52244 24.8839C7.10588 25.2993 6.54231 25.5191 5.96649 25.5191Z" fill="white"/>
<path d="M15.719 34.95C15.3147 34.95 14.9839 34.6202 14.9839 34.217V23.9556C14.9839 23.5525 15.3147 23.2227 15.719 23.2227C16.1233 23.2227 16.4541 23.5525 16.4541 23.9556V34.217C16.4541 34.6202 16.1233 34.95 15.719 34.95Z" fill="white"/>
<path d="M11.5657 31.7738C11.1614 31.7738 10.8306 31.444 10.8306 31.0409V28.1091C10.8306 27.7059 11.1614 27.3761 11.5657 27.3761C11.97 27.3761 12.3008 27.7059 12.3008 28.1091V31.0409C12.3008 31.444 11.97 31.7738 11.5657 31.7738Z" fill="white"/>
<path d="M22.9962 50.0001C22.4326 50.0001 21.869 49.7802 21.4402 49.3526L20.3988 48.3143C20.1171 48.0333 20.1171 47.5691 20.3988 47.2759C20.6806 46.9949 21.1462 46.9949 21.4402 47.2759L22.4816 48.3143C22.7634 48.5952 23.229 48.5952 23.523 48.3143L31.3885 40.4716C31.6703 40.1906 32.1359 40.1906 32.4299 40.4716C32.7117 40.7526 32.7117 41.2168 32.4299 41.51L24.5521 49.3526C24.1233 49.7802 23.5597 50.0001 22.9962 50.0001Z" fill="white"/>
<path d="M20.9134 48.5342C20.7296 48.5342 20.5336 48.4609 20.3988 48.3143C20.1171 48.0333 20.1171 47.5691 20.3988 47.2759L29.808 37.8941C30.0898 37.6131 30.5554 37.6131 30.8494 37.8941C31.1312 38.175 31.1312 38.6392 30.8494 38.9324L21.4402 48.3143C21.2932 48.4609 21.1094 48.5342 20.9134 48.5342Z" fill="white"/>
<path d="M14.3466 43.9776H12.8764C11.2592 43.9776 9.93604 42.6582 9.93604 41.0457C9.93604 39.4332 11.2592 38.1139 12.8764 38.1139H14.3466C15.9638 38.1139 17.287 39.4332 17.287 41.0457C17.287 42.6582 15.9638 43.9776 14.3466 43.9776ZM12.8764 39.5798C12.0678 39.5798 11.4062 40.2395 11.4062 41.0457C11.4062 41.852 12.0678 42.5116 12.8764 42.5116H14.3466C15.1552 42.5116 15.8168 41.852 15.8168 41.0457C15.8168 40.2395 15.1552 39.5798 14.3466 39.5798H12.8764Z" fill="white"/>
<path d="M10.7451 38.688L11.4312 39.3721C11.8233 39.0423 12.3256 38.8346 12.8646 38.8346H12.9749L11.8478 37.7108C11.6027 38.1627 11.2107 38.5048 10.7451 38.688Z" fill="white"/>
<path d="M23.3394 24.3098L14.1508 15.1478C13.7342 14.7325 13.1829 14.5004 12.5948 14.5004C12.0068 14.5004 11.4554 14.7325 11.0389 15.1478L0.649555 25.5192C-0.208055 26.3743 -0.208055 27.7669 0.649555 28.6343L7.03262 34.9988C7.42467 34.669 7.92698 34.4613 8.46605 34.4613H8.57631L1.69094 27.5959C1.40915 27.3149 1.40915 26.8507 1.69094 26.5575L12.0925 16.1862C12.2273 16.0518 12.4111 15.9663 12.6071 15.9663C12.8031 15.9663 12.9869 16.0396 13.1216 16.1862L22.3103 25.3482C22.5921 25.6291 23.0577 25.6291 23.3517 25.3482C23.6335 25.055 23.6335 24.5908 23.3394 24.3098Z" fill="white"/>
<path d="M9.93596 39.5799H8.46577C6.84856 39.5799 5.52539 38.2605 5.52539 36.648C5.52539 35.0355 6.84856 33.7162 8.46577 33.7162H9.93596C11.5532 33.7162 12.8763 35.0355 12.8763 36.648C12.8763 38.2605 11.5532 39.5799 9.93596 39.5799ZM8.46577 35.1821C7.65716 35.1821 6.99558 35.8418 6.99558 36.648C6.99558 37.4543 7.65716 38.1139 8.46577 38.1139H9.93596C10.7446 38.1139 11.4061 37.4543 11.4061 36.648C11.4061 35.8418 10.7446 35.1821 9.93596 35.1821H8.46577Z" fill="white"/>
<path d="M32.5034 42.5117C32.2951 42.5117 32.0869 42.4262 31.9399 42.2551C29.1833 38.9935 27.6641 34.6568 27.6641 30.0514C27.6641 29.6483 27.9949 29.3184 28.3992 29.3184C28.8035 29.3184 29.1342 29.6483 29.1342 30.0514C29.1342 34.3148 30.5309 38.3094 33.067 41.3023C33.3243 41.6077 33.2875 42.0719 32.9812 42.3407C32.8342 42.4506 32.6627 42.5117 32.5034 42.5117Z" fill="white"/>
<path d="M29.7834 48.3754H25.3728C24.9685 48.3754 24.6377 48.0455 24.6377 47.6424C24.6377 47.2393 24.9685 46.9094 25.3728 46.9094H29.7834C32.9688 46.9094 35.0638 44.283 35.0883 44.2586C35.223 44.0753 35.4436 43.9776 35.6641 43.9776H44.2647C44.669 43.9776 44.9998 44.3074 44.9998 44.7106C44.9998 45.1137 44.669 45.4435 44.2647 45.4435H36.0071C35.2843 46.2376 33.03 48.3754 29.7834 48.3754Z" fill="white"/>
<path d="M44.2648 35.1821H38.3841C38.1145 35.1821 37.8573 35.0355 37.7347 34.7912L35.5295 30.5522L23.7435 22.3186C23.0574 23.8823 23.5597 25.7635 25.0054 26.7775L28.8279 29.4528C29.1587 29.6849 29.2444 30.1369 29.0116 30.4789C28.7789 30.8087 28.3256 30.8943 27.9825 30.6622L24.16 27.9869C21.8322 26.3621 21.2687 23.1615 22.8981 20.8405C23.0084 20.6817 23.1799 20.5718 23.3759 20.5351C23.5719 20.4985 23.768 20.5473 23.9272 20.6573L36.5218 29.4528C36.6199 29.5261 36.6934 29.6116 36.7546 29.7093L38.8374 33.7162H44.2771C44.6814 33.7162 45.0122 34.046 45.0122 34.4491C45.0122 34.8522 44.6691 35.1821 44.2648 35.1821Z" fill="white"/>
<path d="M38.3844 19.0569H32.5036C32.0993 19.0569 31.7686 18.7271 31.7686 18.3239V15.3921C31.7686 14.989 32.0993 14.6592 32.5036 14.6592C32.908 14.6592 33.2387 14.989 33.2387 15.3921V17.591H37.6493V12.4603C37.6493 12.0571 37.9801 11.7273 38.3844 11.7273H43.5301V7.32956H41.3248C40.9205 7.32956 40.5897 6.99973 40.5897 6.59661C40.5897 6.19348 40.9205 5.86365 41.3248 5.86365H44.2652C44.6695 5.86365 45.0002 6.19348 45.0002 6.59661V12.4603C45.0002 12.8634 44.6695 13.1932 44.2652 13.1932H39.1195V18.3239C39.1195 18.7271 38.7887 19.0569 38.3844 19.0569Z" fill="white"/>
<path d="M32.5035 13.1933H26.6228C26.2185 13.1933 25.8877 12.8635 25.8877 12.4603V6.59666C25.8877 6.19353 26.2185 5.8637 26.6228 5.8637H31.7684V0.732989C31.7684 0.329862 32.0992 3.05176e-05 32.5035 3.05176e-05H38.3843C38.7886 3.05176e-05 39.1194 0.329862 39.1194 0.732989V6.59666C39.1194 6.99979 38.7886 7.32962 38.3843 7.32962C37.98 7.32962 37.6492 6.99979 37.6492 6.59666V1.46595H33.2386V6.59666C33.2386 6.99979 32.9078 7.32962 32.5035 7.32962H27.3579V11.7274H32.5035C32.9078 11.7274 33.2386 12.0572 33.2386 12.4603C33.2386 12.8635 32.9078 13.1933 32.5035 13.1933Z" fill="white"/>
<path d="M18.7572 48.3753H17.2871C15.6698 48.3753 14.3467 47.0559 14.3467 45.4434C14.3467 43.8309 15.6698 42.5116 17.2871 42.5116H18.7572C20.3744 42.5116 21.6976 43.8309 21.6976 45.4434C21.6976 47.0559 20.3744 48.3753 18.7572 48.3753ZM17.2871 43.9775C16.4785 43.9775 15.8169 44.6372 15.8169 45.4434C15.8169 46.2497 16.4785 46.9094 17.2871 46.9094H18.7572C19.5658 46.9094 20.2274 46.2497 20.2274 45.4434C20.2274 44.6372 19.5658 43.9775 18.7572 43.9775H17.2871Z" fill="white"/>
<path d="M17.287 43.2446H17.3973L16.2702 42.1207C16.0251 42.5605 15.6331 42.9026 15.1553 43.0858L15.8414 43.7699C16.2334 43.4523 16.7357 43.2446 17.287 43.2446Z" fill="white"/>
<path d="M21.4404 47.2759L20.6808 46.5185C20.4358 46.9583 20.0437 47.3003 19.5659 47.4836L20.399 48.3142C20.546 48.4608 20.7298 48.5341 20.9136 48.5341C21.0974 48.5341 21.2934 48.4608 21.4282 48.3142C21.7222 48.0333 21.7222 47.5691 21.4404 47.2759Z" fill="white"/>
</svg>
