<svg width="42" height="45" viewBox="0 0 42 45" fill="none" xmlns="http://www.w3.org/2000/svg">
<path d="M30.4204 44.25L1.3552 35.9704C0.607546 35.7574 0.172331 34.9797 0.390964 34.2122L9.75245 1.34895C9.96446 0.604702 10.7442 0.173046 11.4918 0.386025L40.557 8.6656C41.3047 8.87858 41.7633 9.66298 41.5513 10.4072L32.1898 43.2705C31.9711 44.038 31.1914 44.4696 30.4204 44.25ZM2.42923 34.2396L30.443 42.2197L39.5064 10.4031L11.4926 2.42298L2.42923 34.2396Z" fill="#4A63FE"/>
<path d="M39.9278 12.5599L10.0215 4.04077L9.48484 5.92465L39.3911 14.4438L39.9278 12.5599Z" fill="#4A63FE"/>
<path d="M5.67361 28.3495C5.06613 28.1764 4.26163 27.897 3.20989 27.4213L3.97355 25.6273C5.07865 26.0929 6.32045 26.5221 6.77762 26.6021C7.52736 26.187 9.18063 25.5264 9.40067 25.4634C12.0439 24.4311 12.4411 24.5442 12.7215 24.6241C12.9084 24.6773 13.3056 24.7905 15.8876 26.4563L15.9109 26.463L17.6311 25.9221C17.6611 25.9055 17.6977 25.8656 17.7344 25.8257C18.6319 24.271 19.8249 23.6301 21.0367 24.0759C22.1083 24.4818 23.9956 25.7486 25.1314 26.5499L27.5407 25.2749C27.8406 25.1089 28.3107 24.9662 28.6374 24.8832C31.7553 24.313 32.1591 24.4029 32.4932 24.6489C32.5399 24.6622 32.61 24.6822 32.6735 24.7254C33.7451 25.1313 37.0001 26.3854 36.2315 29.0833L34.339 28.5442C34.5312 27.8697 33.7727 27.2513 31.9733 26.5627C31.8565 26.5294 31.7696 26.4796 31.6762 26.4529C31.3927 26.4728 30.5889 26.5455 28.9882 26.8439C28.8515 26.8804 28.5782 26.9534 28.4582 27.0198L25.8756 28.3712C25.3358 28.67 24.5951 28.6099 24.094 28.2408C22.417 27.0339 20.9775 26.1461 20.3365 25.9132C20.2096 25.8268 19.8166 26.1423 19.4543 26.7934C19.2482 27.1622 18.7987 27.5873 18.292 27.7699L16.4884 28.3374C15.9884 28.4966 15.331 28.41 14.8801 28.1307C13.3604 27.1697 12.6023 26.7274 12.2951 26.5645C11.4114 26.7402 8.21158 28.0415 7.71849 28.3536C7.46533 28.533 7.09883 28.7555 5.67361 28.3495Z" fill="#4A63FE"/>
<path d="M25.2838 39.4926C25.9935 39.6948 26.732 39.286 26.9332 38.5795C27.1345 37.8731 26.7223 37.1365 26.0126 36.9343C25.3029 36.7321 24.5644 37.1409 24.3632 37.8474C24.1619 38.5539 24.5741 39.2905 25.2838 39.4926Z" fill="#4A63FE"/>
<path d="M29.732 35.5801C30.4417 35.7822 31.1802 35.3734 31.3815 34.6669C31.5827 33.9605 31.1705 33.2239 30.4608 33.0217C29.7511 32.8195 29.0126 33.2283 28.8114 33.9348C28.6101 34.6413 29.0223 35.3779 29.732 35.5801Z" fill="#4A63FE"/>
<path d="M22.6354 31.4966C23.3451 31.6988 24.0835 31.29 24.2848 30.5835C24.486 29.877 24.0738 29.1404 23.3641 28.9383C22.6544 28.7361 21.916 29.1449 21.7147 29.8514C21.5135 30.5578 21.9257 31.2944 22.6354 31.4966Z" fill="#4A63FE"/>
<path d="M19.9283 35.8551C20.638 36.0573 21.3765 35.6485 21.5778 34.942C21.779 34.2355 21.3668 33.499 20.6571 33.2968C19.9474 33.0946 19.2089 33.5034 19.0077 34.2099C18.8064 34.9164 19.2186 35.653 19.9283 35.8551Z" fill="#4A63FE"/>
</svg>
