<svg width="46" height="39" viewBox="0 0 46 39" fill="none" xmlns="http://www.w3.org/2000/svg">
<path d="M17.4382 8.43951C17.4382 11.0351 15.3988 13.0745 12.8032 13.0745" stroke="white" stroke-width="2" stroke-miterlimit="10"/>
<path d="M13.7297 33.7466H5.38671C3.34731 33.7466 1.67871 32.078 1.67871 30.0386V20.954C1.67871 19.0073 2.88381 17.246 4.73781 16.5971L10.0217 15.0212V12.1475C8.9093 11.3132 8.1677 10.0154 8.1677 8.43953V5.84393C8.1677 3.43373 9.929 1.30164 12.3392 1.02354C15.1202 0.745437 17.4377 2.97024 17.4377 5.65853V8.43953C17.4377 9.92273 16.6961 11.3132 15.5837 12.1475V15.0212L20.8676 16.5971C22.7216 17.246 23.9267 19.0073 23.9267 20.954" stroke="white" stroke-width="2" stroke-miterlimit="10" stroke-linecap="round" stroke-linejoin="round"/>
<path d="M13.73 25.4036L17.438 29.1116H6.31396" stroke="white" stroke-width="2" stroke-miterlimit="10" stroke-linecap="round" stroke-linejoin="round"/>
<path d="M5.38672 33.7466V37.4546" stroke="white" stroke-width="2" stroke-miterlimit="10" stroke-linecap="round" stroke-linejoin="round"/>
<path d="M26.3367 34.1174L29.1177 24.7547L29.025 24.5693L18.828 24.4766L14.9346 37.3619L15.12 37.4546H23.2776" stroke="white" stroke-width="2" stroke-miterlimit="10"/>
<path d="M27.0781 37.4546H23.3701V34.7663L24.1117 33.7466H28.5613V35.2298L27.0781 37.4546Z" stroke="white" stroke-width="2" stroke-miterlimit="10"/>
<path d="M28.562 8.43951C28.562 11.0351 30.6014 13.0745 33.197 13.0745" stroke="white" stroke-width="2" stroke-miterlimit="10"/>
<path d="M44.321 37.4546V20.954C44.321 19.0073 43.1159 17.246 41.2619 16.5971L35.978 15.0212V12.1475C37.0904 11.3132 37.832 10.0154 37.832 8.43953V5.84393C37.832 3.43373 36.0707 1.30164 33.6605 1.02354C30.8795 0.745437 28.562 2.97024 28.562 5.65853V8.43953C28.562 9.92273 29.3036 11.3132 30.416 12.1475V15.0212L25.5029 16.5971" stroke="white" stroke-width="2" stroke-miterlimit="10" stroke-linecap="round" stroke-linejoin="round"/>
<path d="M39.6855 26.3306V37.4546" stroke="white" stroke-width="2" stroke-miterlimit="10" stroke-linecap="round" stroke-linejoin="round"/>
</svg>
