<svg width="45" height="48" viewBox="0 0 45 48" fill="none" xmlns="http://www.w3.org/2000/svg">
<path d="M38.2142 13.8626L38.0184 13.6668C37.1375 12.7859 36.9418 11.6113 37.5291 11.1219L39.8781 8.87059C40.759 8.08753 42.1293 8.08753 42.9124 9.06636L43.1081 9.26212C43.989 10.1431 43.989 11.5134 43.1081 12.2965L40.759 14.5478C40.2696 15.0372 39.0951 14.7435 38.2142 13.8626Z" stroke="#4A63FE" stroke-width="2" stroke-miterlimit="10"/>
<path d="M18.6396 46.5553C18.6396 46.5553 20.4993 44.5977 21.576 43.6189C29.602 44.2062 32.5384 38.7247 33.3214 37.7459" stroke="#4A63FE" stroke-width="2" stroke-miterlimit="10"/>
<path d="M38.8022 32.1666L38.6065 32.0687C37.7255 31.3836 37.4319 30.3068 37.9213 29.8174L39.8789 27.5661C40.564 26.7831 41.8364 26.6852 42.7174 27.3704L42.9131 27.4683C43.794 28.1534 43.8919 29.4259 43.2067 30.3068L41.2492 32.5581C40.7598 33.0476 39.6831 32.9497 38.8022 32.1666Z" stroke="#4A63FE" stroke-width="2" stroke-miterlimit="10"/>
<path d="M19.6182 39.7036C21.7715 33.6349 19.6182 28.1534 17.7585 25.7064C18.5415 23.2593 18.9331 21.5953 19.1288 18.6588C19.3246 16.9948 18.5415 15.6245 17.8564 14.6457C17.0734 13.5689 15.3115 13.8626 14.92 15.0372C13.354 20.1271 13.0603 21.5953 11.9837 24.1403C10.907 26.9788 11.4943 31.0899 11.0049 32.2645C11.0049 32.4603 8.85156 35.7883 8.85156 35.7883" stroke="#4A63FE" stroke-width="2" stroke-miterlimit="10"/>
<path d="M38.8999 26.0979L38.7041 26.0001C37.8232 25.217 37.5296 24.2382 38.019 23.6509L39.9765 21.3996C40.6617 20.5186 42.032 20.5186 42.815 21.2038L43.0108 21.3017C43.8917 22.0848 43.9896 23.3572 43.3044 24.1403L41.3468 26.3916C40.8574 26.9789 39.6829 26.7831 38.8999 26.0979Z" stroke="#4A63FE" stroke-width="2" stroke-miterlimit="10"/>
<path d="M38.8999 20.0292L38.7041 19.9313C37.8232 19.1483 37.5296 18.1694 38.019 17.5821L39.9765 15.3308C40.6617 14.4499 42.032 14.4499 42.815 15.1351L43.0108 15.233C43.8917 16.016 43.9896 17.2885 43.3044 18.0716L41.3468 20.3229C40.8574 20.9102 39.6829 20.8123 38.8999 20.0292Z" stroke="#4A63FE" stroke-width="2" stroke-miterlimit="10"/>
<path d="M26.4707 34.8094H29.4071" stroke="#4A63FE" stroke-width="2" stroke-miterlimit="10"/>
<path d="M39.1937 9.36002V4.46589C39.1937 2.80189 37.9213 1.52942 36.2573 1.52942H19.618C17.9541 1.52942 16.6816 2.80189 16.6816 4.46589C16.6816 7.30448 16.6816 14.2541 16.6816 14.2541" stroke="#4A63FE" stroke-width="2" stroke-miterlimit="10"/>
<path d="M19.6182 37.7459H36.2575C37.9214 37.7459 39.1939 36.4735 39.1939 34.8095V32.8518" stroke="#4A63FE" stroke-width="2" stroke-miterlimit="10"/>
<path d="M19.6181 46.5553L6.89393 33.8306L2 38.7247L9.83028 46.5553" stroke="#4A63FE" stroke-width="2" stroke-miterlimit="10"/>
<path d="M6.89355 38.7247L7.87234 39.7036" stroke="#4A63FE" stroke-width="2" stroke-miterlimit="10"/>
<path d="M20.5977 31.873H38.2158" stroke="#4A63FE" stroke-width="2" stroke-miterlimit="10"/>
<path d="M16.6816 6.42352H39.1937" stroke="#4A63FE" stroke-width="2" stroke-miterlimit="10"/>
<path d="M26.4707 25.0212C26.8622 24.9233 28.0368 24.6296 28.9177 24.6296C29.7986 24.6296 30.9731 24.9233 31.3646 25.0212" stroke="#4A63FE" stroke-width="2" stroke-miterlimit="10" stroke-linecap="round" stroke-linejoin="round"/>
<path d="M28.9175 21.3016C29.7984 22.0847 31.756 22.0847 32.539 21.6932C33.7135 21.1059 34.3008 20.127 34.3008 18.7567C34.3008 16.1139 29.5048 14.1562 28.9175 12.2964C28.3302 14.1562 23.5342 16.016 23.5342 18.7567C23.5342 20.127 24.1215 21.1059 25.296 21.6932C26.079 22.0847 28.0366 22.0847 28.9175 21.3016Z" stroke="#4A63FE" stroke-width="2" stroke-miterlimit="10" stroke-linecap="round" stroke-linejoin="round"/>
</svg>
