<svg width="45" height="40" viewBox="0 0 45 40" fill="none" xmlns="http://www.w3.org/2000/svg">
<path d="M37.7293 7.33337V8.23814H32.3543V7.33337H12.646V8.23814H7.271V7.33337H3.68766C2.70225 7.33337 1.896 8.14766 1.896 9.1429V36.2858C1.896 37.281 2.70225 38.0953 3.68766 38.0953H41.3127C42.2981 38.0953 43.1043 37.281 43.1043 36.2858V9.1429C43.1043 8.14766 42.2981 7.33337 41.3127 7.33337H37.7293Z" stroke="white" stroke-width="2" stroke-miterlimit="10" stroke-linecap="round" stroke-linejoin="round"/>
<path d="M29.6668 7.33336V1.90479H15.3335V7.33336" stroke="white" stroke-width="2" stroke-miterlimit="10" stroke-linecap="round" stroke-linejoin="round"/>
<path d="M39.5212 12.7619H5.47949V34.4762H39.5212V12.7619Z" stroke="white" stroke-width="2" stroke-miterlimit="10" stroke-linecap="round" stroke-linejoin="round"/>
<path d="M22.5005 20.0001V27.2382" stroke="white" stroke-width="2" stroke-miterlimit="10"/>
<path d="M26.0837 23.6191H18.917" stroke="white" stroke-width="2" stroke-miterlimit="10"/>
<path d="M28.7712 17.2858H16.2295V29.9524H28.7712V17.2858Z" stroke="white" stroke-width="2" stroke-miterlimit="10" stroke-linecap="round"/>
</svg>
