<svg width="38" height="38" viewBox="0 0 38 38" fill="none" xmlns="http://www.w3.org/2000/svg">
<path d="M12.25 4.75H31.75H34.75C35.575 4.75 36.25 5.425 36.25 6.25V30.25C36.25 31.075 35.575 31.75 34.75 31.75H11.5" stroke="white" stroke-width="2" stroke-miterlimit="10" stroke-linecap="round"/>
<path d="M4.75 17.5V27.25H33.25V19.75" stroke="white" stroke-width="2" stroke-miterlimit="10" stroke-linecap="round" stroke-linejoin="round"/>
<path d="M33.0251 17.5H28.0001L26.5001 20.125L23.5001 14.875L20.5001 20.125L17.5001 14.875L14.5001 20.125L11.5001 14.875L9.6251 17.5H4.9751" stroke="white" stroke-width="2" stroke-miterlimit="10" stroke-linecap="round" stroke-linejoin="round"/>
<path d="M4.75 15.25V7.75H33.25V17.5" stroke="white" stroke-width="2" stroke-miterlimit="10" stroke-linecap="round" stroke-linejoin="round"/>
<path d="M31.75 30.25C32.1642 30.25 32.5 29.9142 32.5 29.5C32.5 29.0858 32.1642 28.75 31.75 28.75C31.3358 28.75 31 29.0858 31 29.5C31 29.9142 31.3358 30.25 31.75 30.25Z" fill="white"/>
<path d="M28.75 30.25C29.1642 30.25 29.5 29.9142 29.5 29.5C29.5 29.0858 29.1642 28.75 28.75 28.75C28.3358 28.75 28 29.0858 28 29.5C28 29.9142 28.3358 30.25 28.75 30.25Z" fill="white"/>
<path d="M25.75 30.25C26.1642 30.25 26.5 29.9142 26.5 29.5C26.5 29.0858 26.1642 28.75 25.75 28.75C25.3358 28.75 25 29.0858 25 29.5C25 29.9142 25.3358 30.25 25.75 30.25Z" fill="white"/>
<path d="M34.75 31.75V35.5C34.75 35.95 34.45 36.25 34 36.25H4C3.55 36.25 3.25 35.95 3.25 35.5V31.75" stroke="white" stroke-width="2" stroke-miterlimit="10"/>
<path d="M8.5 31.75H3.25C2.425 31.75 1.75 31.075 1.75 30.25V6.25C1.75 5.425 2.425 4.75 3.25 4.75H13C13 3.25 13 1.75 13 1.75H25V4.75" stroke="white" stroke-width="2" stroke-miterlimit="10" stroke-linecap="round"/>
<path d="M31.75 34.75C32.1642 34.75 32.5 34.4142 32.5 34C32.5 33.5858 32.1642 33.25 31.75 33.25C31.3358 33.25 31 33.5858 31 34C31 34.4142 31.3358 34.75 31.75 34.75Z" fill="white"/>
<path d="M7 21.25H11.5" stroke="white" stroke-width="2" stroke-miterlimit="10" stroke-linejoin="round"/>
<path d="M7 24.25H11.5" stroke="white" stroke-width="2" stroke-miterlimit="10" stroke-linejoin="round"/>
<path d="M26.5 10.75H31" stroke="white" stroke-width="2" stroke-miterlimit="10" stroke-linejoin="round"/>
</svg>
