<svg width="43" height="39" viewBox="0 0 43 39" fill="none" xmlns="http://www.w3.org/2000/svg">
<path d="M7.23866 37.5435C8.22317 37.5435 9.02127 36.7454 9.02127 35.7609C9.02127 34.7764 8.22317 33.9783 7.23866 33.9783C6.25416 33.9783 5.45605 34.7764 5.45605 35.7609C5.45605 36.7454 6.25416 37.5435 7.23866 37.5435Z" stroke="white" stroke-width="2" stroke-miterlimit="10" stroke-linecap="round" stroke-linejoin="round"/>
<path d="M35.7611 37.5435C36.7456 37.5435 37.5437 36.7454 37.5437 35.7609C37.5437 34.7764 36.7456 33.9783 35.7611 33.9783C34.7766 33.9783 33.9785 34.7764 33.9785 35.7609C33.9785 36.7454 34.7766 37.5435 35.7611 37.5435Z" stroke="white" stroke-width="2" stroke-miterlimit="10" stroke-linecap="round" stroke-linejoin="round"/>
<path d="M9.02197 35.7609V31.3044" stroke="white" stroke-width="2" stroke-miterlimit="10" stroke-linecap="round" stroke-linejoin="round"/>
<path d="M33.9785 35.7609V31.3044" stroke="white" stroke-width="2" stroke-miterlimit="10" stroke-linecap="round" stroke-linejoin="round"/>
<path d="M6.52622 16.4195L6.08057 14.5478L8.48709 13.9239L14.6371 17.5782L15.7958 20.6087" stroke="white" stroke-width="2" stroke-miterlimit="10" stroke-linecap="round" stroke-linejoin="round"/>
<path d="M35.7609 24.1739H11.6957C11.3391 24.1739 10.9826 24.0848 10.7152 23.9065L1.80217 17.9348C0.91087 17.3109 0.732609 16.063 1.53478 15.2609C2.1587 14.6369 3.13913 14.5478 3.9413 15.0826L12.3196 20.6978H40.2174C41.1978 20.6978 42 21.5 42 22.4804V27.8282H2.78261C1.80217 27.8282 1 28.6304 1 29.6109C1 30.5913 1.80217 31.3935 2.78261 31.3935H42" stroke="white" stroke-width="2" stroke-miterlimit="10" stroke-linecap="round" stroke-linejoin="round"/>
<path d="M38.4348 25.0653C38.927 25.0653 39.3261 24.6662 39.3261 24.174C39.3261 23.6817 38.927 23.2827 38.4348 23.2827C37.9425 23.2827 37.5435 23.6817 37.5435 24.174C37.5435 24.6662 37.9425 25.0653 38.4348 25.0653Z" fill="white"/>
<path d="M26.8474 3.67389H23.2822V7.23911C23.2822 8.21954 24.0844 9.02172 25.0648 9.02172C26.0453 9.02172 26.8474 8.21954 26.8474 7.23911V3.67389Z" stroke="white" stroke-width="2" stroke-miterlimit="10" stroke-linecap="round" stroke-linejoin="round"/>
<path d="M25.9565 3.67389H33.9783" stroke="white" stroke-width="2" stroke-miterlimit="10" stroke-linecap="round" stroke-linejoin="round"/>
<path d="M25.0649 9.46735C25.0649 13.4782 23.4606 17.3108 20.6975 20.0739L20.6084 20.163" stroke="white" stroke-width="2" stroke-miterlimit="10" stroke-linecap="round" stroke-linejoin="round"/>
<path d="M30.5024 1V20.6087" stroke="white" stroke-width="2" stroke-miterlimit="10" stroke-linecap="round" stroke-linejoin="round"/>
</svg>
