<svg width="40" height="40" viewBox="0 0 40 40" fill="none" xmlns="http://www.w3.org/2000/svg">
<path d="M19.1738 3.47826V1H9.26074V3.47826" stroke="white" stroke-width="2" stroke-miterlimit="10"/>
<path d="M22.4783 39H1V2.65222H9.26087V5.95657H19.1739V2.65222H29.087V14.2174" stroke="white" stroke-width="2" stroke-miterlimit="10" stroke-linecap="round"/>
<path d="M19.9999 35.6957H4.3042V5.95654H6.78246" stroke="white" stroke-width="2" stroke-miterlimit="10"/>
<path d="M25.783 16.6957V5.95654H19.1743" stroke="white" stroke-width="2" stroke-miterlimit="10" stroke-linecap="round"/>
<path d="M11.7387 32.3913H6.78223" stroke="white" stroke-width="2" stroke-miterlimit="10"/>
<path d="M30.7394 25.7826C32.5568 25.7826 34.0438 24.2956 34.0438 22.4783V20.8261C34.0438 19.0087 32.5568 17.5217 30.7394 17.5217C28.922 17.5217 27.4351 19.0087 27.4351 20.8261V22.4783C27.4351 24.2956 28.922 25.7826 30.7394 25.7826Z" stroke="white" stroke-width="2" stroke-miterlimit="10" stroke-linecap="round"/>
<path d="M32.3916 25.7826V27.4348L37.0177 29.0869C38.1742 29.5826 39.0003 30.7391 39.0003 32.0609V39" stroke="white" stroke-width="2" stroke-miterlimit="10" stroke-linecap="round"/>
<path d="M29.0872 25.7826V27.4348L24.4611 29.0869C23.3046 29.5826 22.4785 30.7391 22.4785 32.0609V39" stroke="white" stroke-width="2" stroke-miterlimit="10" stroke-linecap="round"/>
<path d="M35.6958 34.0434V38.9999" stroke="white" stroke-width="2" stroke-miterlimit="10" stroke-linecap="round"/>
<path d="M25.7827 34.0434V38.9999" stroke="white" stroke-width="2" stroke-miterlimit="10" stroke-linecap="round"/>
<path d="M20 8.43475V15.0434" stroke="white" stroke-width="2" stroke-miterlimit="10"/>
<path d="M23.3045 11.7391H16.6958" stroke="white" stroke-width="2" stroke-miterlimit="10"/>
<path d="M6.78223 17.5218H23.304" stroke="white" stroke-width="2" stroke-miterlimit="10"/>
<path d="M6.78223 20.8261H23.304" stroke="white" stroke-width="2" stroke-miterlimit="10"/>
<path d="M6.78223 24.1304H23.304" stroke="white" stroke-width="2" stroke-miterlimit="10"/>
<path d="M6.78223 27.4348H15.0431" stroke="white" stroke-width="2" stroke-miterlimit="10"/>
</svg>
