<svg width="42" height="50" viewBox="0 0 42 50" fill="none" xmlns="http://www.w3.org/2000/svg">
<path d="M12.7697 13.7599H3.2566C1.83581 13.7599 0.662109 12.5964 0.662109 11.1878C0.662109 9.7793 1.83581 8.61573 3.2566 8.61573H8.56912C9.3104 8.61573 9.92813 8.00333 9.92813 7.26844C9.92813 6.53356 9.3104 5.92115 8.56912 5.92115H7.95138C6.53059 5.92115 5.3569 4.75758 5.3569 3.34905C5.3569 1.94052 6.53059 0.838196 7.95138 0.838196H14.9936C16.4144 0.838196 17.588 2.00176 17.588 3.41029C17.588 4.14518 18.2058 4.75758 18.9471 4.75758H22.0357C23.4565 4.75758 24.6302 5.92115 24.6302 7.32968C24.6302 8.73821 23.4565 9.90178 22.0357 9.90178H16.7232C15.9819 9.90178 15.3642 10.5142 15.3642 11.2491C15.3642 12.5964 14.1905 13.7599 12.7697 13.7599ZM3.2566 9.90178C2.51531 9.90178 1.89758 10.5142 1.89758 11.2491C1.89758 11.984 2.51531 12.5964 3.2566 12.5964H12.7697C13.511 12.5964 14.1287 11.984 14.1287 11.2491C14.1287 9.84054 15.3024 8.67697 16.7232 8.67697H22.0357C22.777 8.67697 23.3948 8.06457 23.3948 7.32968C23.3948 6.5948 22.777 5.98239 22.0357 5.98239H18.9471C17.5263 5.98239 16.3526 4.81882 16.3526 3.41029C16.3526 2.67541 15.7348 2.063 14.9936 2.063H7.95138C7.2101 2.063 6.59237 2.67541 6.59237 3.41029C6.59237 4.14518 7.2101 4.75758 7.95138 4.75758H8.56912C9.98991 4.75758 11.1636 5.92115 11.1636 7.32968C11.1636 8.73821 9.98991 9.90178 8.56912 9.90178H3.2566Z" fill="#4A63FE"/>
<path d="M25.2476 15.4134H19.3173C18.2672 15.4134 17.4023 14.5561 17.4023 13.515C17.4023 12.4739 18.2672 11.6165 19.3173 11.6165H25.2476C26.2977 11.6165 27.1626 12.4739 27.1626 13.515C27.1626 14.5561 26.2977 15.4134 25.2476 15.4134ZM19.3173 12.7801C18.9467 12.7801 18.6378 13.0863 18.6378 13.4537C18.6378 13.8212 18.9467 14.1274 19.3173 14.1274H25.2476C25.6182 14.1274 25.9271 13.8212 25.9271 13.4537C25.9271 13.0863 25.6182 12.7801 25.2476 12.7801H19.3173Z" fill="#4A63FE"/>
<path d="M22.2834 45.8499C17.2179 45.8499 13.0791 41.7468 13.0791 36.7251C13.0791 35.1328 13.5115 33.5406 14.3146 32.1321C14.4381 31.9483 14.6234 31.8259 14.8705 31.8259H29.6962C29.9433 31.8259 30.1286 31.9483 30.2521 32.1321C31.0552 33.5406 31.4876 35.1328 31.4876 36.7251C31.4876 41.7468 27.3488 45.8499 22.2834 45.8499ZM15.2412 33.0507C14.6234 34.153 14.3146 35.4391 14.3146 36.7251C14.3146 41.0732 17.8974 44.6251 22.2834 44.6251C26.6693 44.6251 30.2521 41.0732 30.2521 36.7251C30.2521 35.4391 29.9433 34.2142 29.3255 33.0507H15.2412Z" fill="#4A63FE"/>
<path d="M28.3982 49.2794H16.1053C15.0551 49.2794 14.1903 48.422 14.1903 47.3809C14.1903 46.7073 14.5609 46.1561 15.0551 45.7887C12.2753 43.584 10.6074 40.3383 10.6074 36.7251C10.6074 31.6421 13.9432 27.1716 18.8233 25.7018V14.801C18.8233 14.4336 19.0704 14.1886 19.441 14.1886H25.0624C25.4331 14.1886 25.6802 14.4336 25.6802 14.801V25.7018C27.9658 26.3754 29.9425 27.784 31.4251 29.6212L37.1083 26.8654C37.4171 26.7429 37.7878 26.8654 37.9113 27.1716L39.4556 30.3561C39.5174 30.4785 39.5174 30.6623 39.4556 30.846C39.3939 31.0297 39.2703 31.1522 39.1468 31.2134L33.4636 33.9693C33.7107 34.8879 33.8343 35.8677 33.8343 36.8476C33.8343 40.4607 32.1664 43.7065 29.3866 45.9111C29.8808 46.2786 30.2514 46.8297 30.2514 47.5034C30.3749 48.422 29.5101 49.2794 28.3982 49.2794ZM16.1053 46.7073C15.7346 46.7073 15.4258 47.0135 15.4258 47.3809C15.4258 47.7483 15.7346 48.0546 16.1053 48.0546H28.3982C28.7688 48.0546 29.0777 47.7483 29.0777 47.3809C29.0777 47.0135 28.7688 46.7073 28.3982 46.7073H27.9658C27.7187 46.7073 27.4716 46.5235 27.348 46.2786C27.2863 46.0336 27.4098 45.7274 27.5951 45.6049C30.7456 43.7065 32.6606 40.3995 32.6606 36.7863C32.6606 35.7452 32.537 34.7654 32.2281 33.7855C32.1664 33.4793 32.2899 33.1731 32.537 33.0506L38.0966 30.3561L37.1083 28.2127L31.5486 30.9072C31.3015 31.0297 30.9309 30.9685 30.7456 30.7235C29.3248 28.7638 27.2863 27.3553 24.8771 26.7429C24.63 26.6816 24.4447 26.4367 24.4447 26.1305V15.4134H20.0588V26.1305C20.0588 26.4367 19.8734 26.6816 19.6264 26.7429C15.0551 27.9065 11.8429 32.0096 11.8429 36.7251C11.8429 40.3383 13.7579 43.6452 16.9083 45.5437C17.1554 45.6662 17.279 45.9724 17.1554 46.2173C17.0936 46.4623 16.8465 46.646 16.5377 46.646H16.1053V46.7073Z" fill="#4A63FE"/>
<path d="M25.0625 42.2979C23.7035 42.2979 22.6533 41.1956 22.6533 39.9096C22.6533 38.6235 23.7652 37.5212 25.0625 37.5212C26.4215 37.5212 27.4717 38.6235 27.4717 39.9096C27.4717 41.1956 26.4215 42.2979 25.0625 42.2979ZM25.0625 38.746C24.383 38.746 23.8888 39.2972 23.8888 39.9096C23.8888 40.522 24.4448 41.0731 25.0625 41.0731C25.742 41.0731 26.2362 40.522 26.2362 39.9096C26.2362 39.2972 25.742 38.746 25.0625 38.746Z" fill="#4A63FE"/>
<path d="M19.8732 38.746C18.7613 38.746 17.8965 37.8274 17.8965 36.7863C17.8965 35.684 18.8231 34.8266 19.8732 34.8266C20.9852 34.8266 21.85 35.7452 21.85 36.7863C21.85 37.8274 20.9852 38.746 19.8732 38.746ZM19.8732 35.9902C19.4408 35.9902 19.132 36.3576 19.132 36.725C19.132 37.1537 19.5026 37.4599 19.8732 37.4599C20.3057 37.4599 20.6145 37.0925 20.6145 36.725C20.6145 36.3576 20.3057 35.9902 19.8732 35.9902Z" fill="#4A63FE"/>
<path d="M40.0731 31.8258C39.3318 31.8258 38.7141 31.4583 38.4052 30.7847L36.8609 27.6002C36.6138 27.1715 36.6138 26.6816 36.7991 26.1917C36.9844 25.7017 37.2933 25.3343 37.7257 25.1506C38.1581 24.9056 38.6523 24.9056 39.1465 25.0893C39.6407 25.2731 40.0113 25.5793 40.1966 26.0079L41.741 29.1924C41.9881 29.6211 41.9881 30.111 41.8027 30.601C41.6174 31.0909 41.3086 31.4583 40.8761 31.6421C40.629 31.7645 40.382 31.8258 40.0731 31.8258ZM38.5287 26.2529C38.4052 26.2529 38.3434 26.2529 38.2817 26.3141C38.1581 26.3754 38.0346 26.4979 37.9728 26.6816C37.911 26.8653 37.911 26.9878 37.9728 27.1715L39.5171 30.356C39.6407 30.6622 40.0113 30.7847 40.3202 30.6622C40.4437 30.601 40.5673 30.4785 40.629 30.2948C40.6908 30.111 40.6908 29.9886 40.629 29.8048L39.0847 26.5591C39.0229 26.4366 38.8994 26.3141 38.7141 26.2529C38.6523 26.2529 38.5905 26.2529 38.5287 26.2529Z" fill="#4A63FE"/>
</svg>
