<svg width="46" height="47" viewBox="0 0 46 47" fill="none" xmlns="http://www.w3.org/2000/svg">
<path d="M24.9461 25.6853L23.3767 25.4556L24.1531 20.024C24.1696 19.9419 24.1696 19.8927 24.1696 19.8599C24.1696 19.2035 23.641 18.6784 22.9802 18.6784C22.6167 18.6784 22.3524 18.8425 22.1872 18.9738L21.1299 17.7923C21.642 17.3328 22.2863 17.0867 22.9802 17.0867C24.5166 17.0867 25.7556 18.3174 25.7556 19.8435C25.7556 19.9584 25.7391 20.0732 25.7226 20.1881L24.9461 25.6853Z" fill="#4A63FE"/>
<path d="M21.9887 23.3224L20.4192 23.0926L20.9809 19.22C20.9975 19.1379 20.9975 19.0887 20.9975 19.0559C20.9975 18.3995 20.4688 17.8744 19.808 17.8744C19.2298 17.8744 18.7176 18.3175 18.635 18.8918L18.0733 22.7973L16.5039 22.5675L17.0656 18.6621C17.2638 17.3165 18.4368 16.2991 19.808 16.2991C21.3444 16.2991 22.5834 17.5298 22.5834 19.0559C22.5834 19.1708 22.5669 19.2856 22.5504 19.4005L21.9887 23.3224Z" fill="#4A63FE"/>
<path d="M29.7198 46.2794H28.1338V39.9617C28.1338 39.2725 28.3816 38.5997 28.8276 38.0746L29.8684 36.8275C31.3222 35.1044 32.1152 32.922 32.1152 30.6739V24.6023C32.1152 23.6013 31.6361 22.6167 30.8266 21.9768L31.8178 20.746C33.0073 21.6814 33.7012 23.1254 33.7012 24.6187V30.6903C33.7012 33.2994 32.776 35.8429 31.0909 37.8613L30.0502 39.1084C29.8519 39.3545 29.7363 39.6663 29.7363 39.9781V46.2794H29.7198Z" fill="#4A63FE"/>
<path d="M4.52319 19.2842L0.944336 21.6431L1.82121 22.9557L5.40007 20.5967L4.52319 19.2842Z" fill="#4A63FE"/>
<path d="M8.5775 24.0358L6.54102 27.5292L7.91351 28.3186L9.94999 24.8252L8.5775 24.0358Z" fill="#4A63FE"/>
<path d="M25.3591 28.1468C24.4835 28.1468 23.641 27.7202 23.1123 27.0146L24.4009 26.0792C24.6322 26.391 24.9791 26.5715 25.3591 26.5715C25.9373 26.5715 26.4494 26.1284 26.532 25.5541L27.325 20.7953C27.3415 20.7297 27.3415 20.6804 27.3415 20.6476C27.3415 19.9912 26.8129 19.4661 26.1521 19.4661C25.8712 19.4661 25.5738 19.581 25.3591 19.7615L24.3018 18.58C24.8139 18.137 25.4582 17.8908 26.1355 17.8908C27.6719 17.8908 28.911 19.1215 28.911 20.6476C28.911 20.7625 28.8945 20.8774 28.8779 20.9922L28.0684 25.7838C27.9032 27.1294 26.7303 28.1468 25.3591 28.1468Z" fill="#4A63FE"/>
<path d="M19.3956 46.2794H17.8096V40.3392C17.8096 39.7976 17.6114 39.2725 17.248 38.8787C14.7699 36.1219 13.4813 34.0707 12.8535 32.8564C12.457 32.1015 12.2588 31.2482 12.2588 30.3785C12.2588 29.8698 12.3249 29.3447 12.4736 28.8524L13.9604 23.8147C14.3073 22.6496 15.3977 21.8291 16.6202 21.8291C16.7523 21.8291 16.8845 21.8455 17.0001 21.8619L22.4188 22.5839C23.8726 22.7809 25.0291 24.11 24.9465 25.5049C24.8639 26.9817 23.5918 28.1468 22.0554 28.1468H19.7921C19.5773 28.1468 19.3956 28.3273 19.3956 28.5406V29.0986C21.9067 29.7714 24.0213 31.3467 25.376 33.5292L25.9873 34.5137L24.6326 35.3342L24.0213 34.3496C22.8814 32.5118 21.0972 31.1826 19.0156 30.6247C18.3053 30.4277 17.8262 29.8042 17.8262 29.0986V28.5406C17.8262 27.4576 18.7183 26.5715 19.8086 26.5715H22.0719C22.6832 26.5715 23.344 26.1776 23.377 25.4228C23.4101 24.8485 22.8649 24.2413 22.2206 24.1593L16.8184 23.4372C16.7358 23.4208 16.6863 23.4208 16.6202 23.4208C16.0915 23.4208 15.629 23.7654 15.4803 24.2741L13.9934 29.3119C13.8943 29.6565 13.8447 30.0175 13.8447 30.3785C13.8447 31.0021 13.9934 31.5764 14.2743 32.1179C14.869 33.2666 16.075 35.1865 18.4374 37.8121C19.0652 38.5013 19.3956 39.4038 19.3956 40.3227V46.2794Z" fill="#4A63FE"/>
<path d="M28.5633 28.9345C27.3903 28.9345 26.333 28.2125 25.9365 27.1294L27.4234 26.5715C27.6051 27.0474 28.0677 27.3592 28.5633 27.3592C29.1415 27.3592 29.6536 26.9161 29.7362 26.3418L30.5127 21.5994C30.5292 21.5337 30.5292 21.4845 30.5292 21.4517C30.5292 20.7953 30.0006 20.2702 29.3397 20.2702C29.0589 20.2702 28.7615 20.3851 28.5468 20.5656L27.506 19.3841C28.0181 18.941 28.6789 18.6949 29.3397 18.6949C30.8761 18.6949 32.1152 19.9256 32.1152 21.4517C32.1152 21.5666 32.0986 21.6814 32.0821 21.7963L31.3057 26.5879C31.1074 27.9171 29.9345 28.9345 28.5633 28.9345Z" fill="#4A63FE"/>
<path d="M10.5542 8.71809L5.33301 9.72943L5.63656 11.2756L10.8577 10.2643L10.5542 8.71809Z" fill="#4A63FE"/>
<path d="M5.71828 7.62986L4.16309 7.93878L5.21597 13.1684L6.77117 12.8595L5.71828 7.62986Z" fill="#4A63FE"/>
<path d="M13.0508 15.5114C11.9439 15.5114 10.9857 14.7565 10.7379 13.6571L9.1189 5.73125C9.08586 5.58357 9.06934 5.38665 9.06934 5.25538C9.06934 4.13952 9.82928 3.20417 10.9361 2.95803L18.932 1.34989C19.0146 1.33348 19.279 1.30066 19.3946 1.30066C20.7162 1.30066 21.7735 2.36728 21.7735 3.66364C21.7735 4.15593 21.6083 4.63181 21.2944 5.05846L19.0311 8.09424L21.9553 9.40701C22.8143 9.78443 23.3595 10.6377 23.3595 11.5567C23.3595 12.6725 22.5996 13.6079 21.4927 13.854L13.4968 15.4622C13.3481 15.5114 13.1829 15.5114 13.0508 15.5114ZM19.3946 2.89239C19.345 2.89239 19.2459 2.9088 19.2129 2.9088L11.2666 4.50053C10.9196 4.58258 10.6553 4.89436 10.6553 5.25538C10.6553 5.3046 10.6718 5.37024 10.6718 5.41947L12.2908 13.3289C12.3734 13.7227 12.7534 14.0017 13.216 13.9197L21.1788 12.3279C21.5257 12.2459 21.7901 11.9341 21.7901 11.5731C21.7901 11.2613 21.6083 10.9823 21.3275 10.8511L16.5861 8.75062L20.0389 4.13952C20.1545 3.99184 20.2041 3.84415 20.2041 3.68005C20.1876 3.2534 19.8406 2.89239 19.3946 2.89239Z" fill="#4A63FE"/>
<path d="M37.9305 7.96352L37.627 9.5097L45.329 11.0016L45.6325 9.4554L37.9305 7.96352Z" fill="#4A63FE"/>
<path d="M35.5846 13.9361C35.4689 13.9361 35.3533 13.9361 35.2376 13.9197L26.8783 13.0828C26.0688 12.9023 25.441 12.3772 25.1437 11.6715L23.5412 7.71683C23.4255 7.42146 23.376 7.12608 23.376 6.84712C23.376 6.35483 23.5412 5.86254 23.8551 5.43589L27.0931 1.41554C27.5722 0.841202 28.233 0.529419 28.9434 0.529419C29.059 0.529419 29.3398 0.562238 29.3398 0.562238L29.5711 0.611467L37.5175 3.00727C38.5087 3.2206 39.2686 4.17235 39.2686 5.2718C39.2686 5.41948 39.2521 5.55076 39.2191 5.68204L37.8974 12.0654C37.6496 13.1812 36.6914 13.9361 35.5846 13.9361ZM28.9268 2.10474C28.7121 2.10474 28.4808 2.21961 28.3156 2.40012L25.1106 6.38765C25.0115 6.51893 24.9619 6.66662 24.9619 6.83071C24.9619 6.91276 24.9785 7.01122 25.028 7.12608L26.614 11.0808C26.7131 11.3105 26.9113 11.4746 27.1757 11.5403L35.4028 12.3443C35.4854 12.3608 35.535 12.3608 35.5846 12.3608C35.948 12.3608 36.2619 12.0982 36.3445 11.7208L37.6496 5.37026C37.6496 5.33744 37.6661 5.30462 37.6661 5.25539C37.6661 4.91079 37.4183 4.58259 37.1044 4.51696L29.092 2.12115C29.026 2.12115 28.9599 2.10474 28.9268 2.10474Z" fill="#4A63FE"/>
<path d="M42.2291 19.2819L41.3525 20.5947L44.9323 22.9528L45.8088 21.6399L42.2291 19.2819Z" fill="#4A63FE"/>
<path d="M38.1612 24.039L36.7891 24.8289L38.8268 28.3215L40.1989 27.5316L38.1612 24.039Z" fill="#4A63FE"/>
</svg>
