<svg width="163" height="228" viewBox="0 0 163 228" fill="none" xmlns="http://www.w3.org/2000/svg">
<path d="M85.0857 37.0039C87.124 36.5207 89.1 35.8506 90.9205 34.8531C94.219 33.0608 96.0395 31.8452 97.6265 28.4943C99.1202 25.3617 99.976 19.642 99.727 16.2288C99.4936 13.0338 98.6067 9.80769 96.693 7.20496C94.5613 4.27494 91.2783 2.29562 87.7775 1.18907C84.4323 0.129275 80.807 -0.182429 77.3528 0.487735C69.3553 2.06184 63.5517 9.76093 61.9958 17.273C61.3423 20.4524 61.389 23.772 62.1047 26.9514C62.4626 28.5567 63.1472 30.0061 63.6295 31.549C63.9407 32.5309 64.003 33.3881 64.7031 34.1985C68.7174 38.8117 76.3103 38.5312 81.8027 37.6429C82.923 37.4714 84.0122 37.2688 85.0857 37.0039Z" fill="#C45D3D"/>
<path d="M52.0219 222.25H119.58C119.316 215.969 118.615 208.457 117.962 202.378C117.697 199.885 117.433 197.641 117.215 195.802C116.857 192.825 116.608 190.939 116.608 190.939L67.8923 192.046L38.4231 192.716H38.392L36.4937 192.762C36.4937 192.762 35.778 196.456 34.7667 202.207C34.6889 202.643 34.6111 203.095 34.5333 203.563C33.8642 207.428 33.0863 212.088 32.3083 217.107C32.0438 218.79 31.7948 220.52 31.5459 222.265H50.8705H51.0883H51.9596H52.0219V222.25Z" fill="#163B60"/>
<path d="M128.512 78.8033C128.512 99.3446 124.031 170.304 118.725 202.191C92.0563 208.644 41.9399 208.129 33.1645 201.225C30.2549 161.327 31.2974 93.8897 33.1334 73.4108C36.8832 70.4496 48.7238 66.9897 58.3705 64.8233C61.8558 64.0441 65.061 63.4207 67.4727 63.0622L88.711 63.0466C90.8427 63.5609 94.2501 64.4337 98.2333 65.5558C109.016 68.6261 123.891 73.5666 128.512 78.8033Z" fill="white"/>
<path d="M98.2485 65.5871C91.558 84.8504 83.2649 103.568 73.5248 121.491C66.0408 103.397 62.0888 84.0867 58.3701 64.8546C61.8554 64.0753 65.0606 63.4519 67.4723 63.0935L88.7107 63.0779C90.8423 63.5922 94.2653 64.465 98.2485 65.5871Z" fill="#9FE2FF"/>
<path d="M126.893 190.129C126.784 187.573 126.69 185.079 126.597 182.632C126.239 173.764 125.912 165.66 125.632 158.756C125.399 152.895 125.181 147.893 125.025 144.012C124.792 138.23 124.652 134.91 124.652 134.91L74.9713 147.861L34.3772 158.444C33.5214 163.665 32.6812 168.855 31.8566 174.029C31.8566 174.029 31.8566 174.029 31.8566 174.045V174.076C31.6232 175.494 31.4054 176.881 31.172 178.299C31.172 178.331 31.172 178.346 31.1564 178.362C29.5227 188.741 27.9357 199.043 26.3953 209.361C26.0686 211.574 25.7418 213.771 25.4151 215.984C25.1039 218.088 24.8083 220.177 24.4971 222.265C57.9339 230.151 92.5532 229.668 128.137 222.265C127.733 211.137 127.297 200.243 126.893 190.129Z" fill="white"/>
<path d="M50.8547 222.249H28.2627C27.8426 221.346 27.3447 220.239 26.7067 218.805C26.5045 218.369 26.2711 217.854 26.0532 217.34C25.8354 216.857 25.6176 216.389 25.4309 215.969C25.2597 215.579 25.1041 215.267 24.9952 215.034C16.3132 201.615 10.1206 189.365 6.04405 177.364C5.93514 177.052 5.82622 176.741 5.71731 176.429C5.5306 175.852 5.34388 175.276 5.15717 174.699C2.80773 167.187 1.26736 159.768 0.473838 152.163C0.44272 151.945 0.427161 151.726 0.411601 151.524C-1.09765 136.266 1.54743 121.195 8.28458 106.701C8.45573 106.342 8.62689 105.968 8.79804 105.61C9.14034 104.893 9.4982 104.16 9.87163 103.443C10.0583 103.085 10.245 102.727 10.4318 102.368C10.8052 101.651 11.1942 100.934 11.5987 100.217C11.7387 99.9524 11.8943 99.6874 12.0499 99.4069C12.2055 99.142 12.3611 98.877 12.5167 98.6121C14.3371 95.4794 16.3443 92.4092 18.5381 89.4324C18.8026 89.0739 19.0671 88.6999 19.3317 88.3414C21.0432 86.066 22.848 83.8217 24.7618 81.6554C25.0575 81.3125 25.3686 80.9696 25.6798 80.6267C26.0066 80.2527 26.3489 79.8942 26.6756 79.5358C27.1424 79.0215 27.6092 78.5227 28.076 78.024C28.3249 77.7591 28.5894 77.4941 28.8384 77.2292C29.3674 76.6837 29.8808 76.1538 30.4254 75.6239C30.8455 75.2031 31.2812 74.7823 31.7168 74.3615C31.8724 74.2212 32.028 74.081 32.1836 73.9407C32.1992 73.9251 32.2147 73.9095 32.2303 73.9095C32.3547 73.8004 32.4637 73.7069 32.5881 73.6134C32.697 73.5355 32.806 73.442 32.9149 73.364C32.9771 73.3173 33.0394 73.2705 33.1016 73.2238C33.1794 73.177 33.2416 73.1303 33.3194 73.0835C33.4128 73.0212 33.5061 72.9588 33.5995 72.8965C33.6773 72.8497 33.7395 72.803 33.8173 72.7718C33.8951 72.725 33.9885 72.6783 34.0663 72.6315C34.1596 72.5848 34.253 72.5224 34.3463 72.4757C34.4397 72.4289 34.533 72.3666 34.642 72.3354C34.6886 72.3042 34.7197 72.2887 34.7664 72.2731C34.8442 72.2263 34.9376 72.1951 35.0154 72.1484C35.2799 72.0237 35.5444 71.9146 35.8245 71.8211H35.84C35.98 71.7743 36.1201 71.7276 36.2601 71.6808C36.3379 71.6497 36.4157 71.6341 36.4935 71.6029C36.5713 71.5717 36.6491 71.5562 36.7269 71.5406C36.7736 71.525 36.8047 71.5094 36.8514 71.5094C36.9914 71.4782 37.1314 71.4315 37.2559 71.4159C37.3959 71.3847 37.536 71.3535 37.6916 71.338C37.816 71.3068 37.9405 71.2912 38.0805 71.2756C38.1895 71.26 38.2984 71.2445 38.4073 71.2445C38.4851 71.2289 38.5629 71.2289 38.6407 71.2133C38.6718 71.1977 38.7029 71.1977 38.734 71.1977C38.8741 71.1821 39.0141 71.1665 39.1386 71.1665C40.2588 71.1198 41.3947 71.2289 42.4994 71.4938C42.8728 71.5873 43.2307 71.6964 43.5885 71.8211C43.9464 71.9458 44.3042 72.1016 44.6466 72.2575C44.9889 72.4289 45.3312 72.616 45.6735 72.8186C46.5137 73.3329 47.2916 73.9563 47.9918 74.6888C48.1163 74.8135 48.2252 74.9381 48.3341 75.0628C48.443 75.1875 48.5519 75.3122 48.6608 75.4525C48.7386 75.5304 48.8009 75.6239 48.8631 75.7174C48.9565 75.8265 49.0343 75.9512 49.1121 76.0603C49.2054 76.2005 49.3143 76.3408 49.3921 76.4811C49.8745 77.2448 50.2634 78.0396 50.5435 78.8812C50.5902 79.0215 50.6369 79.1462 50.668 79.2864C50.6835 79.3176 50.6991 79.3332 50.6991 79.3643C50.7302 79.489 50.7769 79.5981 50.7925 79.7228C50.9014 80.1436 50.9947 80.5644 51.057 81.0008C51.0725 81.0943 51.0881 81.1878 51.0881 81.2813C51.1192 81.4528 51.1348 81.6242 51.1348 81.7956C51.1503 81.9203 51.1503 82.0294 51.1659 82.1385C51.2126 83.0269 51.1503 83.9308 50.9792 84.8192C50.9636 84.8971 50.948 84.975 50.9325 85.0529C50.9014 85.1932 50.8703 85.3335 50.8391 85.4582C50.8236 85.5205 50.808 85.5828 50.7925 85.6452C50.3724 87.266 49.5788 88.809 48.4275 90.1649C48.3185 90.2896 48.1941 90.4298 48.0851 90.5545C48.0696 90.5701 48.054 90.5857 48.054 90.6013C47.9296 90.7415 47.774 90.8818 47.6339 91.0221C47.4317 91.2247 47.2138 91.4273 46.996 91.6455C46.856 91.7702 46.7159 91.9104 46.5915 92.0507C46.4203 92.2221 46.2336 92.4092 46.0624 92.5806C45.3312 93.3131 44.5843 94.0924 43.8375 94.9028C43.6508 95.1054 43.4485 95.308 43.2618 95.5262C42.4216 96.4613 41.5503 97.4432 40.6945 98.4718C40.4922 98.7056 40.29 98.9549 40.0877 99.2043C38.9985 100.545 37.8938 101.947 36.8203 103.443C36.6647 103.662 36.5246 103.864 36.369 104.082C35.8089 104.877 35.2488 105.688 34.6886 106.529C34.5175 106.779 34.3619 107.044 34.1907 107.293C33.5372 108.322 32.8838 109.381 32.2614 110.457C32.2147 110.535 32.168 110.613 32.1214 110.706C31.9502 111.018 31.7635 111.33 31.5923 111.641C31.5768 111.657 31.5612 111.688 31.5612 111.704C31.4679 111.875 31.3745 112.031 31.2812 112.202C30.7521 113.184 30.2231 114.197 29.7252 115.21C29.5074 115.662 29.2896 116.13 29.0717 116.597C28.8384 117.096 28.605 117.61 28.3871 118.125L27.9982 119.013C27.9515 119.138 27.8892 119.262 27.8426 119.403C27.6558 119.87 27.4536 120.353 27.2824 120.821C27.158 121.117 27.049 121.429 26.9401 121.741C26.8779 121.896 26.8312 122.052 26.769 122.208C26.4889 123.003 26.2088 123.798 25.9599 124.608C25.8665 124.889 25.7887 125.169 25.6954 125.45C25.6798 125.481 25.6643 125.512 25.6643 125.543C25.5709 125.839 25.4931 126.136 25.3998 126.432C25.3842 126.463 25.3842 126.494 25.3686 126.51C25.3064 126.743 25.2442 126.977 25.1819 127.211C25.0575 127.663 24.933 128.13 24.8241 128.582C24.7618 128.832 24.6996 129.081 24.6374 129.331C24.4662 130.063 24.3106 130.827 24.155 131.575C24.0928 131.871 24.0461 132.167 23.9839 132.463C23.9372 132.744 23.8905 133.024 23.8438 133.305C23.8127 133.476 23.7816 133.663 23.766 133.835C23.7349 134.068 23.6882 134.302 23.6571 134.52C23.6104 134.863 23.5638 135.222 23.5171 135.565C23.4704 135.907 23.4393 136.266 23.3926 136.624C23.3148 137.279 23.2681 137.949 23.2059 138.604C23.1748 138.978 23.1437 139.352 23.1281 139.726C23.1126 139.928 23.097 140.131 23.097 140.334C23.0814 140.599 23.0659 140.864 23.0659 141.129C23.0192 142.578 23.0192 144.043 23.0814 145.539C23.1126 146.474 23.1748 147.409 23.2526 148.36C23.2837 148.641 23.2993 148.921 23.3304 149.202C23.3771 149.732 23.4393 150.246 23.5015 150.776C23.5015 150.791 23.5015 150.791 23.5015 150.807C24.1239 156.137 25.2286 161.436 26.8623 166.797C26.9712 167.156 27.0802 167.514 27.1891 167.873C27.3135 168.247 27.4225 168.621 27.5625 168.995C27.687 169.369 27.8114 169.759 27.9515 170.148C28.8695 172.844 29.9119 175.572 31.11 178.33C31.4056 179.016 31.7013 179.686 32.0124 180.372C33.8329 184.377 35.9334 188.461 38.3451 192.7C39.512 194.742 40.7567 196.814 42.0637 198.934C42.8572 200.212 43.6663 201.506 44.5221 202.799C44.9111 203.407 45.2689 204.077 45.7668 205.075C46.2492 206.056 46.8404 207.381 47.7117 209.314C48.2874 210.592 49.221 212.68 49.5788 213.413C50.139 214.363 50.5435 215.361 50.8236 216.374C51.3682 218.338 51.3526 220.348 50.8547 222.249Z" fill="#FFB888"/>
<path d="M68.0631 48.9419L66.3516 65.057C67.4252 68.7195 75.5938 78.2421 75.5938 78.2421C75.5938 78.2421 87.8389 68.5636 90.1728 64.7297C90.1728 64.7297 93.1135 45.2482 93.8292 35.4607C84.2292 38.3595 68.0631 48.9419 68.0631 48.9419Z" fill="#FFB888"/>
<path d="M94.9344 25.5177C94.8255 26.6554 94.7011 27.7931 94.5455 28.8997C93.9853 32.9051 93.2696 36.9105 91.7604 40.6665C90.2356 44.407 87.8705 47.8825 84.5409 50.1579C80.4799 52.9165 75.2987 53.6802 70.4442 53.0412C67.628 52.6827 64.7339 51.7944 62.789 49.7059C60.6574 47.4305 60.0662 44.1264 59.8017 41.0094C59.6616 39.3574 59.5838 37.6742 59.5683 36.0065C59.5372 32.0479 59.895 28.0893 60.6263 24.193C61.4509 19.8135 62.789 15.4185 65.4497 11.8339C68.6549 7.50121 73.8205 4.60236 79.204 4.47768C84.5564 4.36858 90.0022 7.17392 92.7406 11.8027C95.1367 15.8705 95.3545 20.733 94.9344 25.5177Z" fill="#FFB888"/>
<path d="M79.1564 51.0152C75.9201 52.3556 72.7927 52.5582 69.3696 51.8568C68.8873 51.7633 68.7784 52.3244 69.2296 52.4647C72.6682 53.5244 76.418 53.1504 79.6699 51.6542C80.1989 51.4205 79.5921 50.8438 79.1564 51.0152Z" fill="#5E3026"/>
<path d="M95.0278 25.6268C95.0589 26.5152 95.0745 27.388 94.9811 28.2296C94.8567 29.3829 94.3743 30.4583 94.1876 31.6271C93.643 34.9935 92.974 38.3444 91.7448 41.5237C90.22 45.4512 87.855 49.1137 84.5253 51.4983C80.4644 54.3971 75.2831 55.192 70.4286 54.5374C67.6124 54.1633 64.7184 53.2282 62.7735 51.0463C60.6419 48.6462 60.0506 45.1863 59.7861 41.9134C59.6461 40.1678 59.5683 38.4067 59.5527 36.6612C59.9884 37.8145 61.5599 39.8873 62.7735 39.8873C66.181 39.8873 67.8458 38.2976 70.4286 37.7677C72.5136 37.3313 74.1629 37.3625 76.1856 37.9236C79.3908 38.8119 81.8336 41.4614 84.7432 38.9834C88.7886 35.539 91.2469 29.0868 92.0249 23.819C92.9896 23.6475 93.9698 23.4605 94.9345 23.2891C94.9345 24.0372 94.9967 24.832 95.0278 25.6268Z" fill="#C45D3D"/>
<path d="M108.44 184.736C102.231 184.736 95.6187 184.097 88.6326 182.819C82.3622 181.666 78.2235 175.65 79.3748 169.369C80.5262 163.088 86.5321 158.942 92.8025 160.096C115.768 164.319 132.65 159.675 137.955 147.705C143.152 135.97 137.566 114.774 113.045 95.9781C107.988 92.0974 107.024 84.8503 110.898 79.7851C114.772 74.7199 122.007 73.7536 127.064 77.6343C157.047 100.607 169.899 132.525 159.038 157.072C154.184 168.044 145.113 176.242 132.79 180.762C125.555 183.396 117.402 184.736 108.44 184.736Z" fill="#FFB888"/>
<path d="M42.1262 198.934C27.6561 175.525 24.4665 160.173 23.3773 149.233C20.6234 121.553 37.4273 100.887 47.6809 91.0375C52.2709 86.6269 52.4265 79.3018 48.0232 74.7042C43.6199 70.1066 36.3071 69.9507 31.7171 74.3613C21.7903 83.8995 13.6839 95.0897 8.28487 106.685C1.54772 121.179 -1.09736 136.266 0.42745 151.524C1.7811 165.145 5.67092 184.143 23.144 212.103C28.9009 206.945 35.4358 202.83 42.1262 198.934Z" fill="white"/>
<path d="M127.05 77.6031C121.993 73.7224 114.758 74.6886 110.884 79.7538C107.009 84.819 107.974 92.0661 113.031 95.9469C137.552 114.743 143.138 135.939 137.941 147.674C133.18 158.428 119.099 163.259 99.6654 161.093C99.9455 165.395 99.2142 169.836 98.2962 173.966C97.5493 177.317 96.6158 180.606 95.5889 183.879C100.039 184.44 104.318 184.72 108.425 184.72C117.387 184.72 125.54 183.395 132.775 180.73C145.098 176.195 154.169 168.013 159.024 157.041C169.9 132.51 157.048 100.576 127.05 77.6031Z" fill="white"/>
<path d="M69.6979 198.513L67.3174 196.082L80.1227 116.597L135.887 115.351L138.532 117.86L125.929 196.082L69.6979 198.513Z" fill="#FF7150"/>
<path d="M138.174 147.16C138.096 147.331 138.034 147.518 137.956 147.69C133.195 158.444 119.114 163.275 99.68 161.109C99.9601 165.41 99.2288 169.852 98.3108 173.982C97.564 177.333 96.6304 180.621 95.6035 183.894C100.053 184.455 104.332 184.736 108.44 184.736C117.402 184.736 125.555 183.411 132.79 180.746C140.119 178.05 146.296 174.044 151.119 168.948C147.976 160.937 144.273 153.316 138.174 147.16Z" fill="white"/>
<path d="M99.7893 161.124C94.0168 158.833 81.0404 153.752 79.0177 154.345C75.7969 155.264 73.4008 157.664 73.4008 157.664C70.8024 157.477 65.7612 158.381 65.061 159.846C64.6876 160.61 65.1544 161.779 65.9012 162.199C66.6325 162.62 68.1106 163.353 68.1106 163.353C67.2082 163.322 66.2902 163.29 65.4344 163.571C64.5787 163.867 63.8007 164.553 63.6918 165.441C63.5206 166.828 64.9054 167.841 66.119 168.543C65.4967 168.683 64.8432 168.823 64.3297 169.213C63.8163 169.587 63.474 170.257 63.6451 170.865C64.2986 173.14 68.6707 174.262 68.6707 174.262C68.0173 174.387 67.3327 174.527 66.757 174.855C66.1813 175.198 65.6989 175.774 65.6834 176.444C65.6367 178.408 79.889 182.429 95.915 183.956C99.3069 176.398 99.7426 168.839 99.7893 161.124Z" fill="#FFB888"/>
<path d="M79.8266 158.942C77.2904 158.646 74.7854 158.225 72.2181 158.038C71.8447 158.007 71.6425 157.321 72.0937 157.321C74.6454 157.352 77.2904 157.524 79.7799 158.116C80.1533 158.21 80.3089 159.005 79.8266 158.942Z" fill="#5E3026"/>
<path d="M69.1839 163.742C68.7638 163.711 68.3593 163.649 67.9547 163.602C67.7524 163.571 67.5813 163.431 67.5502 163.228C67.5191 163.057 67.628 162.838 67.8302 162.854C68.2659 162.885 68.7171 162.932 69.1528 162.994C69.5106 163.041 69.6351 163.758 69.1839 163.742Z" fill="#5E3026"/>
<path d="M66.9124 169.119C66.539 168.979 66.1656 168.808 65.7922 168.652C65.4499 168.496 65.5121 167.795 65.9322 167.966C66.3056 168.106 66.6791 168.262 67.0525 168.434C67.3948 168.589 67.3481 169.291 66.9124 169.119Z" fill="#5E3026"/>
<path d="M69.7599 175.198C69.2464 175.151 68.7641 174.979 68.3284 174.683C68.1573 174.574 68.0328 174.372 68.1106 174.169C68.1728 173.982 68.4062 173.935 68.5618 174.029C68.8886 174.231 69.2464 174.356 69.6199 174.403C69.8377 174.434 70.0088 174.574 70.0555 174.808C70.1022 174.979 69.9777 175.213 69.7599 175.198Z" fill="#5E3026"/>
<path d="M93.1135 7.67252C91.5265 5.92697 89.6282 4.46196 87.5588 3.35541C86.5008 2.79435 85.6451 2.18652 84.4314 2.04626C83.1245 1.89041 81.8019 1.85924 80.4949 1.95275C77.8654 2.13977 75.2826 2.79435 72.902 3.91648C70.3192 5.13213 68.0009 6.87767 66.1026 9.01284C65.2158 10.0103 64.1111 11.2259 63.5976 12.4728C63.0842 13.6884 62.773 15.169 62.4307 16.4626C62.8041 14.982 65.5581 12.0675 67.1296 11.9584C68.172 11.8961 69.1056 12.5819 69.9925 13.1429C73.6333 15.4339 78.3011 15.995 82.3932 14.6547C84.4314 13.9845 86.5786 12.8624 88.6169 13.517C90.2973 14.0624 91.4175 15.7145 91.8221 17.4444C92.2577 19.3458 91.8999 21.3096 91.8688 23.2265C91.8376 25.1747 91.5109 27.1384 91.013 29.0087C90.7641 29.9594 90.4529 30.988 90.8574 31.8919C91.4642 33.2478 93.238 33.4972 94.7161 33.5439C95.354 31.6893 96.1942 29.9438 96.6454 28.0424C97.1589 25.8604 97.4545 23.6162 97.719 21.3875C98.108 18.0834 97.439 14.6703 95.9297 11.7247C95.1673 10.2285 94.2182 8.88816 93.1135 7.67252Z" fill="#C45D3D"/>
<path d="M94.5607 41.9289C93.067 42.6926 90.7642 43.1134 90.3908 40.9159C90.0796 39.0924 90.5464 37.2378 91.0132 35.461C91.4021 33.9804 91.8067 32.4999 92.4291 31.1128C93.456 28.8373 95.7121 25.6579 98.6372 26.8424C100.038 27.4035 100.504 28.8841 100.582 30.1777C100.769 33.4038 99.5707 36.6455 97.4702 39.3573C96.7234 40.3548 95.7898 41.3055 94.5607 41.9289Z" fill="#FFB888"/>
<path d="M68.4827 22.307C67.5025 22.0265 66.2422 22.12 65.4487 22.8369C65.1842 22.9772 64.9508 23.211 64.7641 23.4603C64.5618 23.7409 64.9508 24.0682 65.2309 24.0526C66.46 23.9747 67.5959 23.6318 68.6695 23.024C69.0584 22.8213 68.825 22.4005 68.4827 22.307Z" fill="#5E3026"/>
<path d="M81.3664 22.307C82.3466 22.0265 83.6069 22.12 84.4004 22.8369C84.6649 22.9772 84.8983 23.211 85.085 23.4603C85.2873 23.7409 84.8983 24.0682 84.6183 24.0526C83.3891 23.9747 82.2533 23.6318 81.1797 23.024C80.8063 22.8213 81.0241 22.4005 81.3664 22.307Z" fill="#5E3026"/>
<path d="M96.754 30.7228C95.556 31.7203 94.638 33.5126 94.2024 34.9776C94.0934 35.336 94.7625 35.5542 94.9181 35.2269C95.2448 34.5412 95.556 33.8554 95.9294 33.2009C96.3495 32.4684 96.9408 31.8294 97.3609 31.0969C97.5631 30.754 97.003 30.5046 96.754 30.7228Z" fill="#5E3026"/>
<path d="M96.7693 34.2297C96.6448 33.731 96.427 33.2946 96.1469 32.8738C95.9135 32.531 95.2289 32.7647 95.4934 33.1855C95.7268 33.5284 95.8824 33.918 96.0224 34.3077C96.1313 34.6194 96.8626 34.6194 96.7693 34.2297Z" fill="#5E3026"/>
<path d="M77.5697 39.3103C74.5201 39.4194 71.4549 39.5285 68.4053 39.6532C68.6231 40.5259 68.8876 41.3987 69.3233 42.1624C69.7589 42.9261 70.3813 43.5962 71.1593 43.8924C72.3262 44.3443 73.6176 43.9079 74.6912 43.2222C76.0293 42.3494 77.2118 40.9935 77.5697 39.3103Z" fill="white"/>
<path d="M72.8865 27.8552C72.2019 30.2553 71.8907 32.8892 71.7196 35.3828C71.6884 35.8036 72.5598 35.9283 72.622 35.4919C72.9488 33.0139 73.3844 30.5203 73.6334 28.0266C73.6645 27.6214 72.9954 27.45 72.8865 27.8552Z" fill="#5E3026"/>
<path d="M73.9599 35.6791C73.6176 35.6635 73.2753 35.7103 72.9485 35.7415C72.8085 35.757 72.684 35.8973 72.6996 36.0376C72.7151 36.2402 72.9174 36.3493 73.1041 36.3493C73.4464 36.3649 73.7887 36.396 74.131 36.3493C74.2866 36.3337 74.4266 36.1778 74.4111 36.022C74.38 35.8194 74.1621 35.6947 73.9599 35.6791Z" fill="#5E3026"/>
<path d="M67.5037 28.51C67.2859 28.2762 66.8969 28.1515 66.6635 28.4165C66.1345 28.6035 65.9789 29.336 65.87 29.8035C65.7299 30.3802 65.5899 31.2841 66.1656 31.6582C66.4301 31.8296 66.6635 31.8452 66.8658 31.7829C67.1147 31.7829 67.3637 31.6894 67.4881 31.4556C67.846 30.801 67.986 30.0373 67.9549 29.2892C67.9549 28.9464 67.7682 28.6658 67.5037 28.51Z" fill="#5E3026"/>
<path d="M83.0471 31.6268C83.2493 31.1905 83.3116 30.7073 83.2182 30.2553C83.2027 29.9592 83.1249 29.6631 82.8448 29.4761C82.8292 29.4761 82.8292 29.4761 82.8137 29.4605C82.7359 29.3982 82.6581 29.367 82.5492 29.3358C82.1913 29.2267 81.8023 29.2891 81.5378 29.5696C80.7599 30.38 80.7132 31.5801 81.1333 32.5308C81.2889 32.8892 81.9268 32.9672 82.2224 32.7178C82.2224 32.7178 82.2224 32.7178 82.238 32.7022C82.6425 32.5931 82.8915 32.11 83.0471 31.6268Z" fill="#5E3026"/>
<path d="M32.3858 101.231C32.3858 100.857 31.6857 100.825 31.6701 101.231C31.6234 105.516 31.3278 109.802 31.25 114.104C31.25 114.431 31.919 114.54 31.9657 114.182C32.4636 109.912 32.4481 105.532 32.3858 101.231Z" fill="#CECECE"/>
<path d="M129.18 109.927C127.515 107.589 124.917 105.797 122.428 104.426C122.007 104.192 121.634 104.722 122.085 104.987C124.606 106.436 126.52 108.337 128.62 110.301C128.869 110.551 129.429 110.286 129.18 109.927Z" fill="#CECECE"/>
<path d="M72.8555 121.678C72.4509 128.645 72.1242 135.674 72.2331 142.656C72.2331 143.045 72.9488 143.077 72.9644 142.656C73.2444 135.674 73.3222 128.66 73.5401 121.678C73.5401 121.32 72.871 121.288 72.8555 121.678Z" fill="#CECECE"/>
<path d="M71.456 121.382C66.3059 116.925 62.8206 110.971 59.1175 105.345C58.1373 103.833 57.1415 102.337 56.1457 100.841C55.57 99.9682 52.9094 97.0537 53.7963 96.0095C56.208 93.1418 58.6352 90.2742 61.0469 87.4065C61.2336 87.1727 60.9224 86.9078 60.7201 86.861C58.324 86.2532 55.9279 85.6298 53.5318 85.022C52.1781 84.6791 51.1668 84.757 51.4935 83.105C51.7113 81.9828 51.9914 80.8919 52.2715 79.7853C53.5318 74.8292 55.4922 70.1381 57.7016 65.556C57.8728 65.2132 57.266 64.9638 57.0948 65.2755C53.7652 71.2602 51.618 77.8839 50.3266 84.6012C50.2799 84.8193 50.4666 84.9908 50.6689 85.0375C53.7496 85.8324 56.8303 86.6272 59.8955 87.4221C57.3749 90.3989 54.8543 93.3756 52.3337 96.3524C52.2404 96.4615 52.3026 96.6329 52.3648 96.742C55.3989 101.48 58.4952 106.187 61.5915 110.878C64.2521 114.914 67.0839 118.826 70.7403 122.006C71.2071 122.349 71.9539 121.834 71.456 121.382Z" fill="#CECECE"/>
<path d="M105.452 84.414C103.616 78.2735 101.92 72.0706 99.8977 65.9768C99.8043 65.6962 99.1664 65.7118 99.2442 66.0391C100.458 70.7926 101.92 75.4837 103.305 80.206C103.647 81.3749 103.99 82.5438 104.332 83.7283C104.612 84.6946 101.205 85.3492 100.598 85.5518C98.0306 86.4089 95.4788 87.2661 92.9116 88.1233C92.7404 88.1857 92.507 88.3571 92.6315 88.5753C94.0007 90.9286 95.3544 93.2976 96.7236 95.6665C97.3771 96.7887 99.4776 99.22 98.2951 100.576C97.4082 101.589 96.319 102.477 95.3233 103.381C91.2778 107.028 86.8279 110.083 82.1757 112.888C81.6933 113.169 82.269 113.745 82.6736 113.527C86.0499 111.673 89.2396 109.475 92.2736 107.106C93.7829 105.937 95.2299 104.69 96.6458 103.412C97.8127 102.353 99.2598 101.34 99.8043 99.8278C100.147 98.8927 98.4818 96.9757 98.0772 96.2744C96.8636 94.1704 95.6344 92.082 94.4208 89.9779C93.7984 88.9182 93.7362 88.7 94.9498 88.2948C96.0857 87.9207 97.2215 87.5467 98.3729 87.157C100.645 86.4089 102.932 85.6453 105.203 84.8816C105.39 84.8037 105.515 84.6478 105.452 84.414Z" fill="#CECECE"/>
<path d="M52.0067 221.252C51.9756 219.616 51.8823 217.979 51.7734 216.358C51.6956 216.358 51.6022 216.358 51.5088 216.374C51.291 216.39 51.0732 216.39 50.8398 216.405C44.6472 216.639 38.4702 216.873 32.2932 217.106C30.2082 217.184 28.1233 217.262 26.0384 217.34C25.9294 217.34 25.8205 217.356 25.7116 217.356C25.5871 218.992 25.5871 220.629 25.6961 222.265H52.0223C52.0223 221.922 52.0067 221.595 52.0067 221.252Z" fill="white"/>
<path d="M52.2703 216.499C52.2237 217.745 52.1303 219.382 52.0058 221.252C51.9747 221.579 51.9591 221.907 51.9436 222.25H51.0723C51.259 219.818 51.4146 217.699 51.5235 216.405C51.5235 216.39 51.5235 216.374 51.5235 216.374C51.6013 216.047 52.2859 216.171 52.2703 216.499Z" fill="#CECECE"/>
<path d="M93.8138 105.392C92.8958 103.709 91.1532 102.477 89.255 102.181C87.3567 101.885 85.3341 102.509 83.9337 103.833C82.2378 105.454 81.5532 108.057 82.2533 110.301C82.9535 112.546 84.9917 114.307 87.3101 114.665C89.6284 115.024 92.1023 113.979 93.456 112.047C94.7941 110.145 94.9341 107.449 93.8138 105.392Z" fill="#EEEBF2"/>
<path d="M65.0914 61.8155C57.7007 67.2548 54.1221 78.0865 57.0161 86.8453C57.0317 86.8453 57.0317 86.8453 57.0473 86.8453C57.7163 86.6116 58.0897 86.3466 58.7899 86.2531C56.9695 77.3228 59.6768 69.1561 66.5073 62.9532C67.3941 62.1428 65.8538 61.2545 65.0914 61.8155Z" fill="#412F6D"/>
<path d="M69.7594 121.694C60.1594 118.858 56.7675 109.07 53.4222 100.685C53.1577 100.031 51.6329 100.171 51.8819 100.95C54.7448 110.052 59.5526 120.12 69.4482 123.066C70.4907 123.377 70.7863 122.006 69.7594 121.694Z" fill="#EEEBF2"/>
<path d="M66.8804 98.129C64.9043 107.792 63.8619 117.891 54.6819 123.564C53.9506 124.016 55.0553 125.013 55.6777 124.655C64.5776 119.543 67.2693 107.932 68.2184 98.3472C68.2807 97.7082 67.0048 97.4744 66.8804 98.129Z" fill="#EEEBF2"/>
<path d="M59.5832 85.4115C51.3213 85.3803 48.2717 93.9833 51.8503 102.134C52.2704 103.101 54.4176 102.446 53.9663 101.23C52.0681 96.0717 52.0526 89.8844 57.4827 87.531C60.8591 86.066 63.7064 88.6999 65.1379 91.2871C66.6471 94.0145 66.6938 97.9264 66.1492 100.888C65.9781 101.807 67.8452 102.259 68.1719 101.324C70.6303 94.4041 66.8183 85.427 59.5832 85.4115Z" fill="#412F6D"/>
<path d="M54.807 122.395C54.4958 122.255 53.889 122.239 53.7178 122.629C53.2044 123.798 53.4844 125.466 54.7759 126.027C55.2271 126.214 55.9272 125.964 55.8495 125.481C56.5652 124.39 55.9117 122.925 54.807 122.395Z" fill="#EEEBF2"/>
<path d="M70.7546 121.366C70.4435 121.023 69.5877 120.774 69.3232 121.351C69.012 122.021 68.6542 123.081 69.0431 123.782C69.2143 124.109 69.6811 124.328 70.0545 124.25C70.319 124.296 70.5835 124.265 70.7546 124.078C71.4237 123.315 71.4548 122.146 70.7546 121.366Z" fill="#EEEBF2"/>
<path d="M92.1644 62.0805C91.5576 61.0207 90.2973 62.0026 90.9041 63.3117C97.8124 78.0709 96.8011 94.8873 87.2321 108.415C86.3297 109.693 88.1657 110.582 88.9437 109.491C98.5904 96.1653 100.582 76.5747 92.1644 62.0805Z" fill="#412F6D"/>
<path d="M98.5898 25.9694C97.7963 25.6888 96.9094 25.72 96.007 26.0473C94.311 26.6707 92.5995 28.4007 91.417 30.6761C90.0166 33.3568 89.2698 37.0037 89.7366 39.5752C90.2189 42.1468 91.8993 43.5806 93.7975 43.6274C96.5671 43.6897 99.9123 40.0584 101.095 35.6945C102.293 31.3463 101.141 26.8733 98.5898 25.9694Z" fill="#412F6D"/>
<path d="M99.9124 28.3071C101.748 29.8189 102.884 32.406 102.806 35.0555C102.729 37.705 101.391 40.3545 99.3834 41.726C97.3607 43.113 94.7156 43.1442 92.8018 41.7415C92.1172 39.3414 92.1795 36.6608 92.9574 34.2295C93.7354 31.8138 95.2446 29.6786 97.1584 28.2759C97.5941 27.9642 98.0764 27.6681 98.5743 27.6837C99.0722 27.6993 99.5234 27.9798 99.9124 28.3071Z" fill="#412F6D"/>
<path d="M92.8179 39.9807C89.1926 45.3108 82.8444 48.1317 76.7296 47.0096C76.1539 46.9005 76.1073 47.7733 76.5896 47.8668C82.9533 49.0357 89.7527 46.0433 93.5492 40.4638C93.8137 40.0742 93.0513 39.6378 92.8179 39.9807Z" fill="#412F6D"/>
<path d="M75.6561 48.6614C76.3251 48.4432 76.9942 48.0224 77.1964 47.3523C77.3676 46.7756 77.1653 46.1366 76.8075 45.6535C75.7805 44.282 73.6956 43.9703 72.1241 44.3288C71.4862 44.469 70.8638 44.7963 70.4748 45.3106C69.5413 46.573 70.6304 48.1004 71.8752 48.5679C73.0266 49.0043 74.5047 49.0511 75.6561 48.6614Z" fill="#412F6D"/>
<path d="M99.7103 16.6963C99.6637 13.1273 98.8857 9.46481 96.863 6.44128C95.3071 4.13467 93.0821 2.29562 90.3437 1.22024C88.0409 0.129275 83.3109 -0.27594 82.7041 0.191616C92.4131 2.28003 96.3029 8.87257 97.2053 13.0027C98.2478 17.8185 97.5787 22.7746 96.8941 27.6216C97.4076 27.5125 97.921 27.419 98.4345 27.3099C99.088 23.8188 99.757 20.2809 99.7103 16.6963Z" fill="#412F6D"/>
</svg>
